/* XPM */
static char * maximize_inactive_xpm[] = {
"15 19 17 1",
" 	c #000000",
".	c #838383",
"+	c #5D5D5D",
"@	c #3C3C3C",
"#	c #333333",
"$	c #C2C2C2",
"%	c #B8B8B8",
"&	c #A9A9A9",
"*	c #FFFFFF",
"=	c #989898",
"-	c #858585",
";	c #717171",
">	c #4C4C4C",
",	c #3D3D3D",
"'	c #323232",
")	c #2E2E2E",
"!	c #282828",
"               ",
"...............",
"+++++++++++++++",
"@@@@@@@@@@@@@@@",
"##           ##",
"## $$$$$$$$$ ##",
"## %%%%%%%%% ##",
"## &&*****&& ##",
"## ==*****== ##",
"## --*---*-- ##",
"## ;;*;;;*;; ##",
"## ++*****++ ##",
"## >>>>>>>>> ##",
"## ,,,,,,,,, ##",
"##           ##",
"'''''''''''''''",
")))))))))))))))",
"!!!!!!!!!!!!!!!",
"               "};
