/* XPM */
static char * top_right_inactive_xpm[] = {
"5 19 19 1",
" 	c #000000",
".	c #838383",
"+	c #7E7E7E",
"@	c #686868",
"#	c #424242",
"$	c #5D5D5D",
"%	c #575757",
"&	c #3D3D3D",
"*	c #303030",
"=	c #3C3C3C",
"-	c #363636",
";	c #313131",
">	c #2D2D2D",
",	c #333333",
"'	c #323232",
")	c #2C2C2C",
"!	c #2F2F2F",
"~	c #2B2B2B",
"{	c #2E2E2E",
"     ",
".+@# ",
"$%&* ",
"=-;> ",
",'*) ",
",'*) ",
",'*) ",
",'*) ",
",'*) ",
",'*) ",
",'*) ",
",'*) ",
",'*) ",
",'*) ",
",'*) ",
"''!) ",
"!*!) ",
"~>{) ",
"  *> "};
