/* XPM */
static char * top_left_inactive_xpm[] = {
"6 19 27 1",
" 	c #000000",
".	c #868686",
"+	c #898989",
"@	c #858585",
"#	c #838383",
"$	c #757575",
"%	c #6C6C6C",
"&	c #616161",
"*	c #5D5D5D",
"=	c #626262",
"-	c #515151",
";	c #414141",
">	c #3C3C3C",
",	c #494949",
"'	c #383838",
")	c #333333",
"!	c #5B5B5B",
"~	c #454545",
"{	c #323232",
"]	c #555555",
"^	c #2F2F2F",
"/	c #2E2E2E",
"(	c #303030",
"_	c #2B2B2B",
":	c #292929",
"<	c #282828",
"[	c #424242",
"      ",
" .+@##",
" $%&**",
" =-;>>",
" *,'))",
" *,'))",
" *,'))",
" *,'))",
" *,'))",
" *,'))",
" *,'))",
" *,'))",
" *,'))",
" *,'))",
" *,'))",
" !~){{",
" ])^//",
" ,(_:<",
" [/   "};
