/* XPM */
static char * bottom_right_active_xpm[] = {
"3 3 8 1",
" 	c #484647",
".	c #47423C",
"+	c #302815",
"@	c #4D453A",
"#	c #31250F",
"$	c #2E2514",
"%	c #312612",
"&	c #38290C",
" .+",
".@#",
"$%&"};
