/* XPM */
static char * bottom_inactive_xpm[] = {
"6 9 8 1",
" 	c #000000",
".	c #AEAEAE",
"+	c #8D8D8D",
"@	c #8B8B8B",
"#	c #828282",
"$	c #7A7A7A",
"%	c #707070",
"&	c #686868",
"      ",
"......",
"++++++",
"@@@@@@",
"######",
"$$$$$$",
"%%%%%%",
"&&&&&&",
"      "};
