/* XPM */
static char * bottom_right_inactive_xpm[] = {
"26 9 16 1",
" 	c None",
".	c #000000",
"+	c #AEAEAE",
"@	c #828282",
"#	c #686868",
"$	c #8D8D8D",
"%	c #8B8B8B",
"&	c #7E7E7E",
"*	c #888888",
"=	c #444444",
"-	c #272727",
";	c #9E9E9E",
">	c #1C1C1C",
",	c #7A7A7A",
"'	c #707070",
")	c #B6B6B6",
"......................+@#.",
"++++++++++$.++++++++++$@#.",
"$$$$$$$$$$#.+$$$$$$$$$$@#.",
"%&*%%%&*%%#.+%%&*%%%&*%@#.",
"&=-;@&=-;@#.+@&=-;@&=-;@#.",
"*->+,*->+,#.+,*->+,*->+,#.",
"';+)'';+)'#.+'';+)'';+)'#.",
"###########.%###########=.",
"......................... "};
