/* XPM */
static char * hide_active_xpm[] = {
"17 26 191 2",
"  	c None",
". 	c #000000",
"+ 	c #DADADA",
"@ 	c #C6C6C6",
"# 	c #C2C2C2",
"$ 	c #ABABAB",
"% 	c #9A9A9A",
"& 	c #929292",
"* 	c #979797",
"= 	c #A2A2A2",
"- 	c #B1B1B1",
"; 	c #C3C3C3",
"> 	c #BFBFBF",
", 	c #A9A9A9",
"' 	c #8C8C8C",
") 	c #616E77",
"! 	c #3D5566",
"~ 	c #25455B",
"{ 	c #1D4057",
"] 	c #27465C",
"^ 	c #415A6B",
"/ 	c #6C7A83",
"( 	c #A1A1A1",
"_ 	c #B3B3B3",
": 	c #B7B7B7",
"< 	c #9E9E9E",
"[ 	c #757B80",
"} 	c #334E61",
"| 	c #00243D",
"1 	c #001F36",
"2 	c #001C31",
"3 	c #001B30",
"4 	c #3C5769",
"5 	c #8D9397",
"6 	c #AFAFAF",
"7 	c #A0A0A0",
"8 	c #244459",
"9 	c #2C475A",
"0 	c #697885",
"a 	c #657581",
"b 	c #465968",
"c 	c #1C3446",
"d 	c #022237",
"e 	c #03253B",
"f 	c #05283F",
"g 	c #032942",
"h 	c #2B4B61",
"i 	c #92989D",
"j 	c #B0B0B0",
"k 	c #A7A7A7",
"l 	c #334F61",
"m 	c #3B5567",
"n 	c #939EA7",
"o 	c #7E8B96",
"p 	c #556A79",
"q 	c #405564",
"r 	c #183446",
"s 	c #09334E",
"t 	c #032339",
"u 	c #0A3753",
"v 	c #06324E",
"w 	c #405B6D",
"x 	c #626F78",
"y 	c #8A96A0",
"z 	c #79868F",
"A 	c #657681",
"B 	c #536875",
"C 	c #B5C2CB",
"D 	c #AEBDC7",
"E 	c #05283E",
"F 	c #A1B6C2",
"G 	c #062A40",
"H 	c #104564",
"I 	c #063452",
"J 	c #7D8A93",
"K 	c #ACACAC",
"L 	c #919191",
"M 	c #3D5667",
"N 	c #778590",
"O 	c #C6CDD2",
"P 	c #C0CAD0",
"Q 	c #4C6373",
"R 	c #B5C4CE",
"S 	c #AEC0CB",
"T 	c #082D45",
"U 	c #092F47",
"V 	c #175478",
"W 	c #175377",
"X 	c #0F4567",
"Y 	c #4E6777",
"Z 	c #26465B",
"` 	c #374C5C",
" .	c #657580",
"..	c #BCC9D0",
"+.	c #435D6F",
"@.	c #B3C5D1",
"#.	c #A8BFCD",
"$.	c #A5BFCE",
"%.	c #A6C1D1",
"&.	c #0B354F",
"*.	c #1D618A",
"=.	c #19597F",
"-.	c #305065",
";.	c #BBBBBB",
">.	c #949494",
",.	c #1E4058",
"'.	c #001C30",
").	c #273F50",
"!.	c #B6C3CC",
"~.	c #B8C6D0",
"{.	c #315064",
"].	c #AAC1CF",
"^.	c #A7C4D5",
"/.	c #A8C6D7",
"(.	c #0D3A56",
"_.	c #236F9B",
":.	c #216A95",
"<.	c #26485F",
"[.	c #C1C1C1",
"}.	c #989898",
"|.	c #28485D",
"1.	c #032135",
"2.	c #A0B2BE",
"3.	c #A2B7C4",
"4.	c #093049",
"5.	c #0D3954",
"6.	c #0E3D5A",
"7.	c #103F5D",
"8.	c #2A7FB0",
"9.	c #297DAE",
"0.	c #23719F",
"a.	c #325268",
"b.	c #999999",
"c.	c #445D6D",
"d.	c #032237",
"e.	c #A0B4C1",
"f.	c #A3B9C7",
"g.	c #A9C9DC",
"h.	c #ABCDE1",
"i.	c #124563",
"j.	c #308EC3",
"k.	c #2F8BBF",
"l.	c #1F6A98",
"m.	c #556E7E",
"n.	c #969696",
"o.	c #727F88",
"p.	c #A4BBC9",
"q.	c #ABCCDF",
"r.	c #ADD1E5",
"s.	c #144969",
"t.	c #369CD5",
"u.	c #3396CE",
"v.	c #14547B",
"w.	c #8D9AA3",
"x.	c #8D8D8D",
"y.	c #A8A8A8",
"z.	c #3F5A6D",
"A.	c #10405D",
"B.	c #124665",
"C.	c #3BAAE8",
"D.	c #2477A7",
"E.	c #4C6779",
"F.	c #CDCDCD",
"G.	c #8F8F8F",
"H.	c #969DA1",
"I.	c #2E4E63",
"J.	c #35556B",
"K.	c #B4BABF",
"L.	c #9DA3A8",
"M.	c #456072",
"N.	c #4D687A",
"O.	c #B5BBBF",
"P.	c #BDBDBD",
"Q.	c #88959E",
"R.	c #546D7D",
"S.	c #345369",
"T.	c #284B62",
"U.	c #35556A",
"V.	c #597182",
"W.	c #93A0A9",
"X.	c #D2D2D2",
"Y.	c #CACACA",
"Z.	c #D0D0D0",
"`.	c #CFCFCF",
" +	c #C4C4C4",
".+	c #909090",
"++	c #7D7D7D",
"@+	c #063858",
"#+	c #15567C",
"$+	c #2576A4",
"%+	c #3493C8",
". . . . . . . . . . . . . . . . . ",
"+ + + + + + + + + + + + + + + + + ",
"@ @ @ @ # $ % & & * = - ; @ @ @ @ ",
"> > > , ' ) ! ~ { ] ^ / ( _ > > > ",
": : < [ } | 1 2 3 2 1 | 4 5 6 : : ",
"- 7 [ 8 9 0 a b c d e f g h i j - ",
"k ' l m n o 0 p q r s t u v w - , ",
"* x | y y z A B C D E F G H I J K ",
"L M 1 N z O P Q R S T U V W X Y _ ",
"L Z 2 `  .P ..+.@.#.$.%.&.*.=.-.;.",
">.,.3 '.).!.~.{.].%.^./.(._.:.<.[.",
"}.|.2 d 1.2.3.4.&.5.6.7.8.9.0.a.# ",
"b.c.1 e d.e.f.$.^.g.h.i.j.k.l.m.;.",
"n.o.| f t F p.%./.q.r.s.t.u.v.w.$ ",
"x.y.z.g u G U &.(.A.B.t.C.D.E.F.G.",
"' b.H.I.v H W *._.9.k.u.D.J.K., ' ",
"' ' ( L.M.I X =.:.0.l.v.N.O._ ' ' ",
"' ' ' 7 P.Q.R.S.T.U.V.W.X.$ ' ' ' ",
"' ' ' ' G.k ;.Y.Z.`. +6 .+' ' ' ' ",
"++++++++++++++++++++++++++++++++++",
". . . . . . . . . . . . . . . . . ",
"@+@+@+@+@+@+@+@+@+@+@+@+@+@+@+@+@+",
"#+#+#+#+#+#+#+#+#+#+#+#+#+#+#+#+#+",
"$+$+$+$+$+$+$+$+$+$+$+$+$+$+$+$+$+",
"%+%+%+%+%+%+%+%+%+%+%+%+%+%+%+%+%+",
". . . . . . . . . . . . . . . . . "};
