/* XPM */
static char * hide_inactive_xpm[] = {
"17 26 188 2",
"  	c None",
". 	c #000000",
"+ 	c #AEAEAE",
"@ 	c #A5A5A5",
"# 	c #A3A3A3",
"$ 	c #9B9B9B",
"% 	c #969696",
"& 	c #949494",
"* 	c #979797",
"= 	c #9F9F9F",
"- 	c #A4A4A4",
"; 	c #989898",
"> 	c #8E8E8E",
", 	c #637079",
"' 	c #3D5666",
") 	c #25455B",
"! 	c #1D4057",
"~ 	c #26465C",
"{ 	c #405969",
"] 	c #6A7780",
"^ 	c #9E9E9E",
"/ 	c #999999",
"( 	c #919191",
"_ 	c #767C81",
": 	c #334F61",
"< 	c #002037",
"[ 	c #00192B",
"} 	c #001423",
"| 	c #001321",
"1 	c #395466",
"2 	c #858C90",
"3 	c #9C9C9C",
"4 	c #8F8F8F",
"5 	c #757B80",
"6 	c #244459",
"7 	c #243B4D",
"8 	c #58646D",
"9 	c #55616B",
"0 	c #3B4954",
"a 	c #182935",
"b 	c #021726",
"c 	c #031A29",
"d 	c #031C2C",
"e 	c #022035",
"f 	c #28485E",
"g 	c #878D92",
"h 	c #8C8C8C",
"i 	c #888888",
"j 	c #324D5F",
"k 	c #324858",
"l 	c #7B848C",
"m 	c #6A757D",
"n 	c #485763",
"o 	c #364957",
"p 	c #152D3D",
"q 	c #072436",
"r 	c #042032",
"s 	c #07263A",
"t 	c #04273D",
"u 	c #3A5568",
"v 	c #868686",
"w 	c #5E6B74",
"x 	c #747E85",
"y 	c #66727B",
"z 	c #556570",
"A 	c #465A65",
"B 	c #8997A0",
"C 	c #7F909B",
"D 	c #062438",
"E 	c #6E8490",
"F 	c #0B3045",
"G 	c #042B46",
"H 	c #6F7C85",
"I 	c #939393",
"J 	c #848484",
"K 	c #395262",
"L 	c #646F78",
"M 	c #9EA7AD",
"N 	c #97A2AA",
"O 	c #415665",
"P 	c #8899A4",
"Q 	c #7E939E",
"R 	c #082A3F",
"S 	c #092C41",
"T 	c #103A53",
"U 	c #0B334D",
"V 	c #445D6D",
"W 	c #858585",
"X 	c #234358",
"Y 	c #2E3D49",
"Z 	c #55646F",
"` 	c #96A2A9",
" .	c #92A0A9",
"..	c #395362",
"+.	c #8599A6",
"@.	c #78909E",
"#.	c #738E9E",
"$.	c #7390A0",
"%.	c #0B324A",
"&.	c #144460",
"*.	c #113F5A",
"=.	c #29495E",
"-.	c #1B3D54",
";.	c #213645",
">.	c #8B99A1",
",.	c #8C9CA7",
"'.	c #2A4759",
").	c #7991A1",
"!.	c #7390A1",
"~.	c #7593A4",
"{.	c #7696A7",
"].	c #0E3751",
"^.	c #184E6C",
"/.	c #174967",
"(.	c #204259",
"_.	c #A2A2A2",
":.	c #878787",
"<.	c #234359",
"[.	c #031D2E",
"}.	c #6D818D",
"|.	c #6F8693",
"1.	c #0A2D43",
"2.	c #0D3750",
"3.	c #0F3A54",
"4.	c #103D58",
"5.	c #1D587B",
"6.	c #1C5779",
"7.	c #19506F",
"8.	c #2A4A5F",
"9.	c #3C5465",
"0.	c #041F30",
"a.	c #6E8290",
"b.	c #708896",
"c.	c #7799AC",
"d.	c #799DB2",
"e.	c #13435F",
"f.	c #216288",
"g.	c #216185",
"h.	c #164D6F",
"i.	c #465F70",
"j.	c #808080",
"k.	c #637179",
"l.	c #718A99",
"m.	c #789BAF",
"n.	c #7BA1B6",
"o.	c #154765",
"p.	c #266C94",
"q.	c #24688F",
"r.	c #0E4262",
"s.	c #75828B",
"t.	c #8D8D8D",
"u.	c #767676",
"v.	c #365264",
"w.	c #113D59",
"x.	c #134361",
"y.	c #2976A1",
"z.	c #19577B",
"A.	c #3E596C",
"B.	c #A8A8A8",
"C.	c #787878",
"D.	c #757575",
"E.	c #828282",
"F.	c #81878C",
"G.	c #27475D",
"H.	c #2C4C61",
"I.	c #93999D",
"J.	c #3A5567",
"K.	c #3F5A6C",
"L.	c #949A9E",
"M.	c #717E87",
"N.	c #465F6F",
"O.	c #2B4B60",
"P.	c #21445B",
"Q.	c #2C4B61",
"R.	c #496272",
"S.	c #78858E",
"T.	c #ACACAC",
"U.	c #777777",
"V.	c #8B8B8B",
"W.	c #A6A6A6",
"X.	c #ABABAB",
"Y.	c #AAAAAA",
"Z.	c #A0A0A0",
"`.	c #909090",
" +	c #686868",
".+	c #0F3C56",
"++	c #1A5272",
"@+	c #24678B",
". . . . . . . . . . . . . . . . . ",
"+ + + + + + + + + + + + + + + + + ",
"@ @ @ @ # $ % & & * $ = - @ @ @ @ ",
"= = = ; > , ' ) ! ~ { ] $ ^ = = = ",
"/ / ( _ : < [ } | } [ < 1 2 3 / / ",
"& 4 5 6 7 8 9 0 a b c d e f g / & ",
"h i j k l m 8 n o p q r s t u = > ",
"v w < x x y z A B C D E s F G H I ",
"J K [ L y M N O P Q R S T T U V / ",
"W X } Y Z `  ...+.@.#.$.%.&.*.=.= ",
"v -.| | ;.>.,.'.).!.~.{.].^./.(._.",
":.<.} b [.}.|.1.%.2.3.4.5.6.7.8._.",
"v 9.[ c 0.a.b.#.~.c.d.e.f.g.h.i.$ ",
"j.k.< d r E l.$.{.m.n.o.p.q.r.s.t.",
"u.( v.e s s S %.].w.x.p.y.z.A.B.C.",
"D.E.F.G.t F T &.^.6.g.q.z.H.I.h D.",
"D.D.i 2 J.G U *./.7.h.r.K.L.I D.D.",
"D.D.D.v ^ M.N.O.P.Q.R.S.T.t.D.D.D.",
"D.D.D.D.U.V.$ W.X.Y.Z.`.C.D.D.D.D.",
" + + + + + + + + + + + + + + + + +",
". . . . . . . . . . . . . . . . . ",
"t t t t t t t t t t t t t t t t t ",
".+.+.+.+.+.+.+.+.+.+.+.+.+.+.+.+.+",
"++++++++++++++++++++++++++++++++++",
"@+@+@+@+@+@+@+@+@+@+@+@+@+@+@+@+@+",
". . . . . . . . . . . . . . . . . "};
