/* XPM */
static char * hide_pressed_xpm[] = {
"17 26 186 2",
"  	c None",
". 	c #000000",
"+ 	c #DADADA",
"@ 	c #C6C6C6",
"# 	c #C2C2C2",
"$ 	c #ABABAB",
"% 	c #9A9A9A",
"& 	c #929292",
"* 	c #979797",
"= 	c #A2A2A2",
"- 	c #B1B1B1",
"; 	c #C3C3C3",
"> 	c #BFBFBF",
", 	c #A9A9A9",
"' 	c #8C8C8C",
") 	c #616E77",
"! 	c #3D5566",
"~ 	c #25455B",
"{ 	c #1D4057",
"] 	c #27465C",
"^ 	c #415A6B",
"/ 	c #6C7A83",
"( 	c #A1A1A1",
"_ 	c #B3B3B3",
": 	c #B7B7B7",
"< 	c #9E9E9E",
"[ 	c #757B80",
"} 	c #334E61",
"| 	c #002037",
"1 	c #00192B",
"2 	c #001423",
"3 	c #001321",
"4 	c #3C5769",
"5 	c #8D9397",
"6 	c #AFAFAF",
"7 	c #A0A0A0",
"8 	c #244459",
"9 	c #001A2D",
"0 	c #021726",
"a 	c #031A29",
"b 	c #031C2C",
"c 	c #022035",
"d 	c #2B4B61",
"e 	c #92989D",
"f 	c #B0B0B0",
"g 	c #A7A7A7",
"h 	c #334F61",
"i 	c #414F59",
"j 	c #69747C",
"k 	c #66727C",
"l 	c #485A66",
"m 	c #213948",
"n 	c #072436",
"o 	c #072639",
"p 	c #07263A",
"q 	c #04273D",
"r 	c #405B6D",
"s 	c #626F78",
"t 	c #58646D",
"u 	c #939BA0",
"v 	c #7F8B92",
"w 	c #6B7C85",
"x 	c #586D7A",
"y 	c #415663",
"z 	c #193344",
"A 	c #0B3045",
"B 	c #042134",
"C 	c #042B46",
"D 	c #7D8A93",
"E 	c #ACACAC",
"F 	c #919191",
"G 	c #3D5667",
"H 	c #8A9299",
"I 	c #8B959C",
"J 	c #7A8790",
"K 	c #667781",
"L 	c #546774",
"M 	c #B6C2C8",
"N 	c #AEBBC3",
"O 	c #062539",
"P 	c #A1B1BB",
"Q 	c #0B334D",
"R 	c #4E6777",
"S 	c #26465B",
"T 	c #78838B",
"U 	c #798790",
"V 	c #C7CED2",
"W 	c #C1CAD0",
"X 	c #4D6271",
"Y 	c #B5C2CA",
"Z 	c #AEBEC7",
"` 	c #07293E",
" .	c #144460",
"..	c #113F5A",
"+.	c #305065",
"@.	c #BBBBBB",
"#.	c #949494",
"$.	c #1E4058",
"%.	c #3A4C5A",
"&.	c #667681",
"*.	c #C1CACF",
"=.	c #BDC8CE",
"-.	c #445B6B",
";.	c #B2C2CC",
">.	c #A8BAC6",
",.	c #A4B9C5",
"'.	c #092D43",
").	c #174967",
"!.	c #26485F",
"~.	c #C1C1C1",
"{.	c #989898",
"].	c #28485D",
"^.	c #062132",
"/.	c #28404F",
"(.	c #B7C3C9",
"_.	c #B8C5CC",
":.	c #304D5E",
"<.	c #A9BDC7",
"[.	c #A5BBC8",
"}.	c #A5BDCA",
"|.	c #A6BDCB",
"1.	c #0A3048",
"2.	c #19506F",
"3.	c #325268",
"4.	c #999999",
"5.	c #445D6D",
"6.	c #042033",
"7.	c #A0B0B9",
"8.	c #A2B4BF",
"9.	c #092B41",
"0.	c #0A2F46",
"a.	c #0B3149",
"b.	c #0C344D",
"c.	c #0C354E",
"d.	c #216185",
"e.	c #164D6F",
"f.	c #556E7E",
"g.	c #969696",
"h.	c #727F88",
"i.	c #042133",
"j.	c #A2B5C0",
"k.	c #A7C1CF",
"l.	c #A9C3D3",
"m.	c #0E3852",
"n.	c #24688F",
"o.	c #0E4262",
"p.	c #8D9AA3",
"q.	c #8D8D8D",
"r.	c #A8A8A8",
"s.	c #3F5A6D",
"t.	c #A2B5C1",
"u.	c #A7C1D0",
"v.	c #A9C5D5",
"w.	c #103C58",
"x.	c #19577B",
"y.	c #4C6779",
"z.	c #CDCDCD",
"A.	c #8F8F8F",
"B.	c #969DA1",
"C.	c #2E4E63",
"D.	c #0E3751",
"E.	c #35556B",
"F.	c #B4BABF",
"G.	c #9DA3A8",
"H.	c #456072",
"I.	c #4D687A",
"J.	c #B5BBBF",
"K.	c #BDBDBD",
"L.	c #88959E",
"M.	c #546D7D",
"N.	c #345369",
"O.	c #284B62",
"P.	c #35556A",
"Q.	c #597182",
"R.	c #93A0A9",
"S.	c #D2D2D2",
"T.	c #CACACA",
"U.	c #D0D0D0",
"V.	c #CFCFCF",
"W.	c #C4C4C4",
"X.	c #909090",
"Y.	c #7D7D7D",
"Z.	c #063858",
"`.	c #15567C",
" +	c #2576A4",
".+	c #3493C8",
". . . . . . . . . . . . . . . . . ",
"+ + + + + + + + + + + + + + + + + ",
"@ @ @ @ # $ % & & * = - ; @ @ @ @ ",
"> > > , ' ) ! ~ { ] ^ / ( _ > > > ",
": : < [ } | 1 2 3 2 1 | 4 5 6 : : ",
"- 7 [ 8 9 3 3 3 3 0 a b c d e f - ",
"g ' h 9 3 i j k l m n o p q r - , ",
"* s | 3 t u v w x y z A B A C D E ",
"F G 1 3 H I J K L M N O P O Q R _ ",
"F S 2 3 T U V W X Y Z ` `  ...+.@.",
"#.$.3 3 %.&.*.=.-.;.>.,.,.'.).!.~.",
"{.].2 0 ^./.(._.:.<.[.}.|.1.2.3.# ",
"4.5.1 a n 6.7.8.9.0.a.b.c.d.e.f.@.",
"g.h.| b o i.P j.,.}.k.l.m.n.o.p.$ ",
"q.r.s.c p B P t.,.|.u.v.w.x.y.z.A.",
"' 4.B.C.q A O ` '.1.b.D.x.E.F., ' ",
"' ' ( G.H.C Q ..).2.e.o.I.J._ ' ' ",
"' ' ' 7 K.L.M.N.O.P.Q.R.S.$ ' ' ' ",
"' ' ' ' A.g @.T.U.V.W.6 X.' ' ' ' ",
"Y.Y.Y.Y.Y.Y.Y.Y.Y.Y.Y.Y.Y.Y.Y.Y.Y.",
". . . . . . . . . . . . . . . . . ",
"Z.Z.Z.Z.Z.Z.Z.Z.Z.Z.Z.Z.Z.Z.Z.Z.Z.",
"`.`.`.`.`.`.`.`.`.`.`.`.`.`.`.`.`.",
" + + + + + + + + + + + + + + + + +",
".+.+.+.+.+.+.+.+.+.+.+.+.+.+.+.+.+",
". . . . . . . . . . . . . . . . . "};
