/* XPM */
static char * maximize_inactive_xpm[] = {
"17 26 190 2",
"  	c None",
". 	c #000000",
"+ 	c #AEAEAE",
"@ 	c #A5A5A5",
"# 	c #A3A3A3",
"$ 	c #9B9B9B",
"% 	c #969696",
"& 	c #949494",
"* 	c #979797",
"= 	c #9F9F9F",
"- 	c #A4A4A4",
"; 	c #989898",
"> 	c #8E8E8E",
", 	c #637079",
"' 	c #3D5666",
") 	c #25455B",
"! 	c #1D4057",
"~ 	c #26465C",
"{ 	c #405969",
"] 	c #6A7780",
"^ 	c #9E9E9E",
"/ 	c #999999",
"( 	c #919191",
"_ 	c #767C81",
": 	c #334F61",
"< 	c #002037",
"[ 	c #00192B",
"} 	c #001423",
"| 	c #001321",
"1 	c #395466",
"2 	c #858C90",
"3 	c #9C9C9C",
"4 	c #8F8F8F",
"5 	c #757B80",
"6 	c #244459",
"7 	c #243B4D",
"8 	c #58646D",
"9 	c #55616B",
"0 	c #3B4954",
"a 	c #182935",
"b 	c #021726",
"c 	c #031A29",
"d 	c #031C2C",
"e 	c #022035",
"f 	c #28485E",
"g 	c #878D92",
"h 	c #8C8C8C",
"i 	c #888888",
"j 	c #324D5F",
"k 	c #324858",
"l 	c #7B848C",
"m 	c #6A757D",
"n 	c #58656F",
"o 	c #475763",
"p 	c #364957",
"q 	c #152D3D",
"r 	c #041F30",
"s 	c #042032",
"t 	c #07263A",
"u 	c #04273D",
"v 	c #3A5568",
"w 	c #868686",
"x 	c #5E6B74",
"y 	c #747E85",
"z 	c #66727B",
"A 	c #9BA4AA",
"B 	c #929EA6",
"C 	c #8997A0",
"D 	c #7F909B",
"E 	c #6E8290",
"F 	c #6E8490",
"G 	c #0B3045",
"H 	c #042B46",
"I 	c #6F7C85",
"J 	c #939393",
"K 	c #848484",
"L 	c #395262",
"M 	c #646F78",
"N 	c #667179",
"O 	c #5B6B75",
"P 	c #97A2AA",
"Q 	c #8F9EA7",
"R 	c #8899A4",
"S 	c #7E939E",
"T 	c #708896",
"U 	c #718A99",
"V 	c #092C41",
"W 	c #103A53",
"X 	c #0B334D",
"Y 	c #445D6D",
"Z 	c #858585",
"` 	c #234358",
" .	c #2E3D49",
"..	c #56646F",
"+.	c #4E616C",
"@.	c #445A68",
"#.	c #395362",
"$.	c #2D495B",
"%.	c #15364B",
"&.	c #738E9E",
"*.	c #7390A0",
"=.	c #0B324A",
"-.	c #144460",
";.	c #113F5A",
">.	c #29495E",
",.	c #1B3D54",
"'.	c #213645",
").	c #8B99A1",
"!.	c #8C9CA7",
"~.	c #8497A4",
"{.	c #7991A1",
"].	c #7593A4",
"^.	c #7696A7",
"/.	c #0E3751",
"(.	c #184E6C",
"_.	c #174967",
":.	c #204259",
"<.	c #A2A2A2",
"[.	c #878787",
"}.	c #234359",
"|.	c #031D2E",
"1.	c #6D818D",
"2.	c #6F8693",
"3.	c #728B9A",
"4.	c #7390A1",
"5.	c #0D3750",
"6.	c #7799AC",
"7.	c #789BAF",
"8.	c #113D59",
"9.	c #1C5779",
"0.	c #19506F",
"a.	c #2A4A5F",
"b.	c #3C5465",
"c.	c #072436",
"d.	c #062438",
"e.	c #082A3F",
"f.	c #0F3A54",
"g.	c #799DB2",
"h.	c #7BA1B6",
"i.	c #134361",
"j.	c #216185",
"k.	c #164D6F",
"l.	c #465F70",
"m.	c #808080",
"n.	c #637179",
"o.	c #103D58",
"p.	c #13435F",
"q.	c #154765",
"r.	c #266C94",
"s.	c #24688F",
"t.	c #0E4262",
"u.	c #75828B",
"v.	c #8D8D8D",
"w.	c #767676",
"x.	c #365264",
"y.	c #1D587B",
"z.	c #216288",
"A.	c #2976A1",
"B.	c #19577B",
"C.	c #3E596C",
"D.	c #A8A8A8",
"E.	c #787878",
"F.	c #757575",
"G.	c #828282",
"H.	c #81878C",
"I.	c #27475D",
"J.	c #2C4C61",
"K.	c #93999D",
"L.	c #3A5567",
"M.	c #3F5A6C",
"N.	c #949A9E",
"O.	c #717E87",
"P.	c #465F6F",
"Q.	c #2B4B60",
"R.	c #21445B",
"S.	c #2C4B61",
"T.	c #496272",
"U.	c #78858E",
"V.	c #ACACAC",
"W.	c #777777",
"X.	c #8B8B8B",
"Y.	c #A6A6A6",
"Z.	c #ABABAB",
"`.	c #AAAAAA",
" +	c #A0A0A0",
".+	c #909090",
"++	c #686868",
"@+	c #0F3C56",
"#+	c #1A5272",
"$+	c #24678B",
". . . . . . . . . . . . . . . . . ",
"+ + + + + + + + + + + + + + + + + ",
"@ @ @ @ # $ % & & * $ = - @ @ @ @ ",
"= = = ; > , ' ) ! ~ { ] $ ^ = = = ",
"/ / ( _ : < [ } | } [ < 1 2 3 / / ",
"& 4 5 6 7 8 9 0 a b c d e f g / & ",
"h i j k l m n o p q r s t u v = > ",
"w x < y y z A B C D E F t G H I J ",
"K L [ M N O P Q R S T U V W X Y / ",
"Z ` }  ...+.@.#.$.%.&.*.=.-.;.>.= ",
"w ,.| | '.).!.~.{.=.].^./.(._.:.<.",
"[.}.} b |.1.2.3.4.5.6.7.8.9.0.a.<.",
"w b.[ c c.d.e.&.].f.g.h.i.j.k.l.$ ",
"m.n.< d s F V *.^.o.p.q.r.s.t.u.v.",
"w.( x.e t t W =./.y.z.r.A.B.C.D.E.",
"F.G.H.I.u G W -.(.9.j.s.B.J.K.h F.",
"F.F.i 2 L.H X ;._.0.k.t.M.N.J F.F.",
"F.F.F.w ^ O.P.Q.R.S.T.U.V.v.F.F.F.",
"F.F.F.F.W.X.$ Y.Z.`. +.+E.F.F.F.F.",
"++++++++++++++++++++++++++++++++++",
". . . . . . . . . . . . . . . . . ",
"u u u u u u u u u u u u u u u u u ",
"@+@+@+@+@+@+@+@+@+@+@+@+@+@+@+@+@+",
"#+#+#+#+#+#+#+#+#+#+#+#+#+#+#+#+#+",
"$+$+$+$+$+$+$+$+$+$+$+$+$+$+$+$+$+",
". . . . . . . . . . . . . . . . . "};
