/* XPM */
static char * close_active_xpm[] = {
"12 24 15 1",
" 	c #757575",
".	c #FFFFFF",
"+	c #F8F8F8",
"@	c #E3E3E3",
"#	c #BEBEBE",
"$	c #F9F9F9",
"%	c #F4F4F4",
"&	c #F2F2F2",
"*	c #F3F3F3",
"=	c #737373",
"-	c #F1F1F1",
";	c #EBEBEB",
">	c #FCFCFC",
",	c #E4E4E4",
"'	c #F7F7F7",
"            ",
"............",
"++++++++++++",
"@@@@@@@@@@@@",
"            ",
"############",
"$$$$$$$$$$$$",
"$$$$$$$$$$$$",
"            ",
"............",
"+++++++++++.",
"%%%%%%%%%%%.",
"&&&&&&&&&&*.",
"&&&=&&&=&&*.",
"&&&&=&=&&&*.",
"&&&&&=&&&&*.",
"&&&&=&=&&&*.",
"&&&=&&&=&&*.",
"-----------.",
";;;;;;;;;;;>",
"@@@@@@@@@@,'",
"            ",
"############",
"$$$$$$$$$$$$"};
