/* XPM */
static char * menu_active_xpm[] = {
"10 24 25 1",
" 	c #757575",
".	c #FFFFFF",
"+	c #F8F8F8",
"@	c #E3E3E3",
"#	c #BEBEBE",
"$	c #F9F9F9",
"%	c #F7F7F7",
"&	c #F3F3F3",
"*	c #F0F0F0",
"=	c #EFEFEF",
"-	c #F2F2F2",
";	c #F5F5F5",
">	c #F1F1F1",
",	c #ECECEC",
"'	c #E8E8E8",
")	c #E6E6E6",
"!	c #E5E5E5",
"~	c #EBEBEB",
"{	c #E9E9E9",
"]	c #FEFEFE",
"^	c #FCFCFC",
"/	c #EDEDED",
"(	c #EEEEEE",
"_	c #E7E7E7",
":	c #E4E4E4",
"          ",
"..........",
"++++++++++",
"@@@@@@@@@@",
"          ",
"##########",
"$$$$$$$$$$",
"$$$$$$$$$$",
"          ",
"..........",
".%&*===*-;",
".>,')!!'~=",
".={      =",
".=' #### ]",
".={ #$$$ .",
".={ #$$$ .",
".*~ #$$$ .",
".-=      .",
".->-......",
"^/,/(===(/",
"%_:::!!!::",
"          ",
"$$########",
"$$$$$$$$$$"};
