/* XPM */
static char * title_4_active_xpm[] = {
"6 24 19 1",
" 	c #757575",
".	c #FFFFFF",
"+	c #F8F8F8",
"@	c #E3E3E3",
"#	c #BEBEBE",
"$	c #F9F9F9",
"%	c #A9A9A9",
"&	c #F4F4F4",
"*	c #FDFDFD",
"=	c #F1F1F1",
"-	c #EBEBEB",
";	c #EEEEEE",
">	c #E9E9E9",
",	c #EDEDED",
"'	c #E8E8E8",
")	c #ECECEC",
"!	c #E7E7E7",
"~	c #E5E5E5",
"{	c #939393",
"      ",
"......",
"++++++",
"@@@@@@",
"      ",
"######",
"$$$$$$",
"$$$$$$",
"  %&&%",
".* && ",
"=- && ",
";> #& ",
",' #& ",
",' #& ",
",' #& ",
",' #& ",
",' #& ",
",' #& ",
")! #& ",
">~ #& ",
"@@ #& ",
"  {#&%",
"####&&",
"$$$$$$"};
