/* XPM */
static char * top_right_active_xpm[] = {
"8 24 16 1",
" 	c #757575",
".	c #A9A9A9",
"+	c #FFFFFF",
"@	c #FDFDFD",
"#	c #F8F8F8",
"$	c #F1F1F1",
"%	c #EBEBEB",
"&	c #E3E3E3",
"*	c #E6E6E6",
"=	c #EAEAEA",
"-	c #EFEFEF",
";	c #EDEDED",
">	c #E8E8E8",
",	c #BEBEBE",
"'	c #FEFEFE",
")	c #F9F9F9",
"       .",
"++++++@ ",
"#####$% ",
"&&*=-;> ",
"    -;> ",
",,, ';> ",
"))) +;> ",
"))) +;> ",
".)) +;> ",
" )) +;> ",
" )) +;> ",
" ,) +;> ",
" ,) +;> ",
" ,) +;> ",
" ,) +;> ",
" ,) +;> ",
" ,) +;> ",
" ,) +;> ",
" ,) +;> ",
" ,) +;> ",
" ,) +;> ",
".,) +;> ",
",,) +;> ",
"))) +;> "};
