/* XPM */
static char * maximize_inactive_xpm[] = {
"7 17 6 1",
" 	c None",
".	c #B1B1B1",
"+	c #E7E7E7",
"@	c #3B3B3B",
"#	c #313131",
"$	c #E6E6E6",
".......",
"+++++++",
"@@@@@@@",
"@@@@@@@",
"@@@@@@@",
"@@@@@@@",
"#######",
"#$$$$$#",
"#$$$$$#",
"#$###$#",
"#$###$#",
"#$$$$$#",
"#######",
"@@@@@@@",
"@@@@@@@",
"@@@@@@@",
"@@@@@@@"};
