/* XPM */
static char * title_2_active_xpm[] = {
"1 17 4 1",
" 	c None",
".	c #B1B1B1",
"+	c #E7E7E7",
"@	c #3B3B3B",
".",
"+",
"@",
"@",
"@",
"@",
"@",
"@",
"@",
"@",
"@",
"@",
"@",
"@",
"@",
"@",
"@"};
