/* XPM */
static char * bottom_right_active_xpm[] = {
"10 10 3 1",
" 	c None",
".	c #D5CB51 s active_border_color",
"+	c #EAE5A8 s active_color_1",
"     .+++.",
"     .+++.",
"     .+++.",
"     .+++.",
"     .+++.",
"......+++.",
"+++++++++.",
"+++++++++.",
"+++++++++.",
".........."};
