/* XPM */
static char * left_active_xpm[] = {
"5 5 2 1",
" 	c #D5CB51 s inactive_border_color",
".	c #EAE5A8 s inactive_color_1",
" ... ",
" ... ",
" ... ",
" ... ",
" ... "};
