/* XPM */
static char * maximize_active_xpm[] = {
"14 20 5 1",
"       c #D5CB51 s active_mid_1",
".      c #F4F2CF s active_hilight_1",
"+      c #3D4C5A s active_border_color",
"@      c #EAE5A8 s active_color_1",
"#      c #FFFFFF",
"++++++++++++++",
"..............",
"..............",
"..............",
".++++++++++++.",
"@+          +@",
"@+          +@",
"@+  ######  +@",
"@+  ######  +@",
"@+  #    #  +@",
"@+  #    #  +@",
"@+  #    #  +@",
"@+  ######  +@",
"@+          +@",
"@+          +@",
"@++++++++++++@",
"@@@@@@@@@@@@@@",
"@@@@@@@@@@@@@@",
"@@@@@@@@@@@@@@",
"++++++++++++++"};
