/* XPM */
static char * top_left_active_xpm[] = {
"5 20 3 1",
" 	c #D5CB51 s active_border_color",
".	c #F4F2CF s active_hilight_1",
"+	c #EAE5A8 s active_color_1",
"     ",
" ....",
" ....",
" ....",
" ....",
" ++++",
" ++++",
" ++++",
" ++++",
" ++++",
" ++++",
" ++++",
" ++++",
" ++++",
" ++++",
" ++++",
" ++++",
" ++++",
" ++++",
" +++ "};
