/* XPM */
static char * bottom_inactive_xpm[] = {
"4 4 2 1",
" 	c #C4A000",
".	c #EDD400",
"    ",
"....",
"....",
"    "};
