/* XPM */
static char * close_pressed_xpm[] = {
"7 19 12 1",
" 	c None",
".	c #C4A000",
"+	c #FCE94F",
"@	c #D9C300",
"#	c #DCC500",
"$	c #DFC800",
"%	c #E2CA00",
"&	c #EED60C",
"*	c #EED70F",
"=	c #EED712",
"-	c #EED815",
";	c #EFD817",
".......",
"+++++++",
"@@@@@@@",
"#######",
"$$$$$$$",
"%%%%%%%",
".......",
".+++++.",
".+.+.+.",
".++.++.",
".+.+.+.",
".+++++.",
".......",
"&&&&&&&",
"*******",
"=======",
"-------",
";;;;;;;",
"......."};
