/* XPM */
static char * close_active_xpm[] = {
"7 19 20 1",
" 	c #C4A000",
".	c #FCE94F",
"+	c #D9C300",
"@	c #DCC500",
"#	c #DFC800",
"$	c #E2CA00",
"%	c #BE9B00",
"&	c #C09D00",
"*	c #FAFAFA",
"=	c #C29F00",
"-	c #FDFDFD",
";	c #FFFFFF",
">	c #C4A102",
",	c #C5A205",
"'	c #C6A308",
")	c #EED60C",
"!	c #EED70F",
"~	c #EED712",
"{	c #EED815",
"]	c #EFD817",
"       ",
".......",
"+++++++",
"@@@@@@@",
"#######",
"$$$$$$$",
"%%%%%%%",
"&*****&",
"=-=-=-=",
" ;; ;; ",
">;>;>;>",
",;;;;;,",
"'''''''",
")))))))",
"!!!!!!!",
"~~~~~~~",
"{{{{{{{",
"]]]]]]]",
"       "};
