/* XPM */
static char * title_1_active_xpm[] = {
"1 19 10 1",
" 	c #C4A000",
".	c #FCE94F",
"+	c #D9C300",
"@	c #DCC500",
"#	c #DFC800",
"$	c #E2CA00",
"%	c #E6CD00",
"&	c #E8D000",
"*	c #EBD200",
"=	c #EDD400",
" ",
".",
"+",
"@",
"#",
"$",
"%",
"&",
"*",
"=",
"=",
"=",
"=",
"=",
"=",
"=",
"=",
"=",
" "};
