/* XPM */
static char * title_4_active_xpm[] = {
"1 19 18 1",
" 	c #8F5902",
".	c #E9B96E",
"+	c #B17310",
"@	c #B37410",
"#	c #B67610",
"$	c #B87710",
"%	c #BB7910",
"&	c #BD7B11",
"*	c #BF7C11",
"=	c #C17D11",
"-	c #C17E13",
";	c #C28016",
">	c #C38118",
",	c #C4831C",
"'	c #C5851F",
")	c #C58622",
"!	c #C68825",
"~	c #C78926",
" ",
".",
"+",
"@",
"#",
"$",
"%",
"&",
"*",
"=",
"-",
";",
">",
",",
"'",
")",
"!",
"~",
" "};
