/* XPM */
static char *bottom_right_active[] = {
/* columns rows colors chars-per-pixel */
"6 6 3 1 ",
"  c #282828",
". c #343434",
"X c white",
/* pixels */
"XX.  .",
"XX.  .",
"...  .",
"     .",
"     .",
"......"
};
