/* XPM */
static char *top_right_inactive[] = {
/* columns rows colors chars-per-pixel */
"4 17 2 1 ",
"  c #282828",
". c #343434",
/* pixels */
"....",
"   .",
"   .",
"   .",
"   .",
"   .",
"   .",
"   .",
"   .",
"   .",
"   .",
"   .",
"   .",
"   .",
"   .",
"   .",
".  ."
};
