/* XPM */
static char * hide_active_xpm[] = {
"11 19 6 1",
" 	c #8C8C8C",
".	c #F1F1F1",
"+	c #DFDFDF",
"@	c #C2C2C2",
"#	c #C8C8C8",
"$	c #8D8D8D",
"           ",
"...........",
"+++++++++++",
"+++++++++++",
"           ",
" ........+ ",
" .+++++++@ ",
" .+++++++@ ",
" .+++++++@ ",
" .+++++++@ ",
" .+++++++@ ",
" .+++++++@ ",
" .+++++++@ ",
" +@@@@@@@@ ",
"           ",
"+++++++++++",
"+++++++++++",
"###########",
"$$$$$$$$$$$"};
