/* XPM */
static char * top_right_active_xpm[] = {
"4 19 6 1",
" 	c #8C8C8C",
".	c #F5F5F5",
"+	c #DEDEDE",
"@	c #DFDFDF",
"#	c #C3C3C3",
"$	c #C8C8C8",
"    ",
"..+ ",
"@@# ",
"@@# ",
"@@# ",
"@@# ",
"@@# ",
"@@# ",
"@@# ",
"@@# ",
"@@# ",
"@@# ",
"@@# ",
"@@# ",
"@@# ",
"@@# ",
"@@# ",
"$@# ",
" .# "};
