/* XPM */
static char * top_left_inactive_xpm[] = {
"4 19 5 1",
" 	c #696969",
".	c #D2D2D2",
"+	c #ADADAD",
"@	c #959595",
"#	c #575757",
"    ",
" ...",
" .++",
" .++",
" .++",
" .++",
" .++",
" .++",
" .++",
" .++",
" .++",
" .++",
" .++",
" .++",
" .++",
" .++",
" .++",
" .@@",
" .@#"};
