/* XPM */
static char * bottom_active_xpm[] = {
"6 4 4 1",
" 	c None",
".	c #4E9A06",
"+	c #80D62B",
"@	c #8AE234",
"......",
"++++++",
"@@@@@@",
"......"};
