/* XPM */
static char * hide_active_xpm[] = {
"7 19 19 1",
" 	c #4E9A06",
".	c #8AE234",
"+	c #6AC114",
"@	c #6BC314",
"#	c #6CC615",
"$	c #6EC815",
"%	c #6FCB15",
"&	c #71CE16",
"*	c #72D016",
"=	c #73D216",
"-	c #4F9B08",
";	c #519C0B",
">	c #FFFFFF",
",	c #549D0E",
"'	c #7AD421",
")	c #7BD524",
"!	c #7DD526",
"~	c #7FD629",
"{	c #80D62B",
"       ",
".......",
"+++++++",
"@@@@@@@",
"#######",
"$$$$$$$",
"%%%%%%%",
"&&&&&&&",
"*******",
"=======",
"-------",
";>>>>>;",
",,,,,,,",
"'''''''",
")))))))",
"!!!!!!!",
"~~~~~~~",
"{{{{{{{",
"       "};
