/* XPM */
static char * top_right_inactive_xpm[] = {
"4 19 2 1",
" 	c #4E9A06",
".	c #73D216",
"    ",
"... ",
"... ",
"... ",
"... ",
"... ",
"... ",
"... ",
"... ",
"... ",
"... ",
"... ",
"... ",
"... ",
"... ",
"... ",
"... ",
"... ",
" .. "};
