/* XPM */
static char * title_5_active_xpm[] = {
"1 19 18 1",
" 	c None",
".	c #BABDB6",
"+	c #EEEEEC",
"@	c #C2C5BE",
"#	c #C4C8C0",
"$	c #C7CAC3",
"%	c #C9CDC5",
"&	c #CCD0C9",
"*	c #CFD3CB",
"=	c #D1D5CD",
"-	c #D3D7CF",
";	c #D4D8D0",
">	c #D4D8D1",
",	c #D5D9D1",
"'	c #D6D9D2",
")	c #D6DAD2",
"!	c #D7DAD3",
"~	c #D7DBD3",
".",
"+",
"@",
"#",
"$",
"%",
"&",
"*",
"=",
"-",
"-",
";",
">",
",",
"'",
")",
"!",
"~",
"."};
