/* XPM */
static char * bottom_right_active_xpm[] = {
"6 6 3 1",
" 	c None",
".	c #323232",
"+	c #000000",
"   ..+",
"   ..+",
"   ..+",
".....+",
".....+",
"++++++"};
