/* XPM */
static char * close_pressed_xpm[] = {
"7 17 4 1",
" 	c None",
".	c #000000",
"+	c #121212",
"@	c #323232",
".......",
".......",
".......",
".......",
".......",
".+...+.",
"..+.+..",
"...+...",
"..+.+..",
".+...+.",
".......",
".......",
".......",
".......",
".......",
"@@@@@@@",
"@@@@@@@"};
