/* XPM */
static char * title_2_active_xpm[] = {
"1 17 3 1",
" 	c None",
".	c #000000",
"+	c #323232",
".",
".",
".",
".",
".",
".",
".",
".",
".",
".",
".",
".",
".",
".",
".",
"+",
"+"};
