/* XPM */
static char * bottom_active_xpm[] = {
"6 3 4 1",
" 	c None",
".	c #EEEEEC",
"+	c #BABDB6",
"@	c #D3D7CF",
"......",
"++++++",
"@@@@@@"};
