/* XPM */
static char * bottom_left_active_xpm[] = {
"6 6 4 1",
" 	c None",
".	c #D3D7CF",
"+	c #BABDB6",
"@	c #EEEEEC",
".+@   ",
".+@   ",
".+@   ",
".+@@@@",
".+++++",
"......"};
