/* XPM */
static char * maximize_inactive_xpm[] = {
"7 17 3 1",
" 	c #D3D7CF",
".	c #888A85",
"+	c #EEEEEC",
"       ",
"       ",
"       ",
"       ",
"       ",
"       ",
" ..... ",
" ..... ",
" .   . ",
" .   . ",
" ..... ",
"       ",
"       ",
"       ",
"       ",
"       ",
"+++++++"};
