/* XPM */
static char * maximize_active_xpm[] = {
"7 17 4 1",
" 	c #D3D7CF",
".	c #888A85",
"+	c #EEEEEC",
"@	c #BABDB6",
"       ",
"       ",
"       ",
"       ",
"       ",
".......",
".+++++.",
".+++++.",
".+...+.",
".+...+.",
".+++++.",
".......",
"       ",
"       ",
"       ",
"@@@@@@@",
"+++++++"};
