/* XPM */
static char * title_4_active_xpm[] = {
"1 17 3 1",
" 	c #D3D7CF",
".	c #BABDB6",
"+	c #EEEEEC",
" ",
" ",
" ",
" ",
" ",
" ",
" ",
" ",
" ",
" ",
" ",
" ",
" ",
" ",
" ",
".",
"+"};
