/* XPM */
static char * top_left_active_xpm[] = {
"3 17 3 1",
" 	c #D3D7CF",
".	c #BABDB6",
"+	c #EEEEEC",
"   ",
"   ",
"   ",
"   ",
"   ",
"   ",
"   ",
"   ",
"   ",
"   ",
"   ",
"   ",
"   ",
"   ",
"   ",
" ..",
" .+"};
