/* XPM */
static char * bottom_left_inactive_xpm[] = {
"24 24 99 2",
"  	c None",
". 	c #000000",
"+ 	c #A2AFBD",
"@ 	c #9CA9B7",
"# 	c #99A6B2",
"$ 	c #96A2AF",
"% 	c #919DA9",
"& 	c #8E9AA6",
"* 	c #8A96A2",
"= 	c #87919D",
"- 	c #828E99",
"; 	c #7F8A96",
"> 	c #7C8790",
", 	c #76818B",
"' 	c #737E88",
") 	c #707B82",
"! 	c #6D757F",
"~ 	c #69727B",
"{ 	c #666F76",
"] 	c #616972",
"^ 	c #5E666F",
"/ 	c #5A6369",
"( 	c #575E66",
"_ 	c #545A61",
": 	c #606970",
"< 	c #3F4349",
"[ 	c #3D4246",
"} 	c #3C4045",
"| 	c #3A3F43",
"1 	c #393D42",
"2 	c #363A3F",
"3 	c #34393D",
"4 	c #33373C",
"5 	c #31363A",
"6 	c #303437",
"7 	c #2E3136",
"8 	c #2D3034",
"9 	c #2B2E31",
"0 	c #2A2D30",
"a 	c #282B2E",
"b 	c #272A2D",
"c 	c #24272A",
"d 	c #222528",
"e 	c #212427",
"f 	c #1F2225",
"g 	c #161819",
"h 	c #818D97",
"i 	c #535B61",
"j 	c #51585E",
"k 	c #4E555C",
"l 	c #4C5358",
"m 	c #4A5156",
"n 	c #464D53",
"o 	c #444B51",
"p 	c #42494D",
"q 	c #40454B",
"r 	c #3D4348",
"s 	c #3A4044",
"t 	c #383D42",
"u 	c #363B3F",
"v 	c #33383C",
"w 	c #313639",
"x 	c #2F3337",
"y 	c #2B3033",
"z 	c #292E31",
"A 	c #272B2E",
"B 	c #25282B",
"C 	c #191C1E",
"D 	c #4C5157",
"E 	c #303439",
"F 	c #2E3336",
"G 	c #2B2E33",
"H 	c #2A2D31",
"I 	c #24252A",
"J 	c #222427",
"K 	c #1E2124",
"L 	c #1C1F21",
"M 	c #1B1C1F",
"N 	c #191B1E",
"O 	c #18191C",
"P 	c #151618",
"Q 	c #131516",
"R 	c #121215",
"S 	c #0C0C0D",
"T 	c #484E55",
"U 	c #2D3136",
"V 	c #282B30",
"W 	c #24282B",
"X 	c #22252A",
"Y 	c #1E1F22",
"Z 	c #1B1E1F",
"` 	c #181B1C",
" .	c #16181B",
"..	c #121516",
"+.	c #101213",
"@.	c #0F1012",
"#.	c #0D0F0F",
"$.	c #0A0C0D",
"%.	c #060707",
".                                               ",
".                                               ",
".                                               ",
".                                               ",
".                                               ",
".                                               ",
".                                               ",
".                                               ",
".                                               ",
".                                               ",
".                                               ",
".                                               ",
".                                               ",
".                                               ",
".                                               ",
".                                               ",
".                                               ",
". . . . . . . . . . . . . . . . . . . . . . . . ",
". + @ # $ % & * = - ; > , ' ) ! ~ { ] ^ / ( _ . ",
". : < [ } | 1 2 3 4 5 6 7 8 9 0 a b c d e f g . ",
". h i j k l m n o p q r s t u v w x y z A B C . ",
". D E F 8 G H a b B I J f K L M N O g P Q R S . ",
". T U y H V b W X e f Y Z C `  .P ..+.@.#.$.%.. ",
". . . . . . . . . . . . . . . . . . . . . . . . "};
