/* XPM */
static char * bottom_right_active_xpm[] = {
"24 24 102 2",
"  	c None",
". 	c #000000",
"+ 	c #FFFFFF",
"@ 	c #FAFFFF",
"# 	c #F4FFFF",
"$ 	c #EDF9FF",
"% 	c #E8F4FF",
"& 	c #E1EDF9",
"* 	c #DBE7F3",
"= 	c #D5DFEB",
"- 	c #CFD9E5",
"; 	c #C7D3DE",
"> 	c #C3CDD8",
", 	c #BDC6D0",
"' 	c #B7C0CA",
") 	c #B1B8C3",
"! 	c #A9B2BD",
"~ 	c #A5ACB5",
"{ 	c #9DA6AF",
"] 	c #979FA8",
"^ 	c #9199A2",
"/ 	c #8B919A",
"( 	c #A2ABB1",
"_ 	c #696F73",
": 	c #666C70",
"< 	c #63696D",
"[ 	c #60666A",
"} 	c #5D6367",
"| 	c #5B6064",
"1 	c #585D61",
"2 	c #555A5E",
"3 	c #52575B",
"4 	c #4F5458",
"5 	c #4C5255",
"6 	c #4B4F52",
"7 	c #484C4F",
"8 	c #45494C",
"9 	c #424649",
"0 	c #3F4346",
"a 	c #3D4043",
"b 	c #3A3D40",
"c 	c #373A3D",
"d 	c #34373A",
"e 	c #242728",
"f 	c #D8E2ED",
"g 	c #8B939A",
"h 	c #878E95",
"i 	c #838A91",
"j 	c #7F858C",
"k 	c #7A8188",
"l 	c #777E83",
"m 	c #72797F",
"n 	c #6E757A",
"o 	c #6A7076",
"p 	c #666C71",
"q 	c #61686D",
"r 	c #5E6468",
"s 	c #5A5F64",
"t 	c #565B5F",
"u 	c #52565B",
"v 	c #4D5256",
"w 	c #4A4E52",
"x 	c #454A4D",
"y 	c #414549",
"z 	c #3D4144",
"A 	c #2A2D30",
"B 	c #7E848B",
"C 	c #51555A",
"D 	c #4E5257",
"E 	c #4B4F54",
"F 	c #484C51",
"G 	c #45494E",
"H 	c #43464B",
"I 	c #404348",
"J 	c #3D4045",
"K 	c #3A3D42",
"L 	c #373A3F",
"M 	c #34393C",
"N 	c #333639",
"O 	c #303336",
"P 	c #2D3033",
"Q 	c #272A2D",
"R 	c #25272A",
"S 	c #222427",
"T 	c #1F2124",
"U 	c #1C1E21",
"V 	c #121316",
"W 	c #797E84",
"X 	c #4C5155",
"Y 	c #494E52",
"Z 	c #464B4E",
"` 	c #313337",
" .	c #2D3133",
"..	c #2B2D30",
"+.	c #282A2D",
"@.	c #222425",
"#.	c #1E1F22",
"$.	c #1C1E1F",
"%.	c #181B1C",
"&.	c #151618",
"*.	c #121315",
"=.	c #0A0C0D",
"                                              . ",
"                                              . ",
"                                              . ",
"                                              . ",
"                                              . ",
"                                              . ",
"                                              . ",
"                                              . ",
"                                              . ",
"                                              . ",
"                                              . ",
"                                              . ",
"                                              . ",
"                                              . ",
"                                              . ",
"                                              . ",
"                                              . ",
". . . . . . . . . . . . . . . . . . . . . . . . ",
". + + + @ # $ % & * = - ; > , ' ) ! ~ { ] ^ / . ",
". ( _ : < [ } | 1 2 3 4 5 6 7 8 9 0 a b c d e . ",
". f g h i j k l m n o p q r s t u v w x y z A . ",
". B C D E F G H I J K L M N O P A Q R S T U V . ",
". W X Y Z H I J b c d `  ...+.R @.#.$.%.&.*.=.. ",
". . . . . . . . . . . . . . . . . . . . . . . . "};
