/* XPM */
static char * bottom_inactive_xpm[] = {
"7 7 7 1",
" 	c None",
".	c #000000",
"+	c #486C90",
"@	c #26394C",
"#	c #1C2B39",
"$	c #131C26",
"%	c #060A0D",
".......",
"+++++++",
"@@@@@@@",
"#######",
"$$$$$$$",
"%%%%%%%",
"......."};
