/* XPM */
static char * hide_pressed_xpm[] = {
"13 19 69 1",
" 	c #000000",
".	c #90B4D8",
"+	c #5B738B",
"@	c #566E86",
"#	c #516981",
"$	c #0C1927",
"%	c #132537",
"&	c #16283A",
"*	c #192B3D",
"=	c #1C2E40",
"-	c #1E3042",
";	c #213345",
">	c #243648",
",	c #27394B",
"'	c #2A3C4E",
")	c #435E79",
"!	c #4D657D",
"~	c #1F374F",
"{	c #223A52",
"]	c #263E56",
"^	c #2A425A",
"/	c #2D455D",
"(	c #314961",
"_	c #354D65",
":	c #385068",
"<	c #3C546C",
"[	c #6084A8",
"}	c #486078",
"|	c #253D55",
"1	c #294159",
"2	c #304860",
"3	c #344C64",
"4	c #3B536B",
"5	c #3F576F",
"6	c #6488AC",
"7	c #435B73",
"8	c #6A8EB2",
"9	c #405870",
"0	c #475F77",
"a	c #7094B8",
"b	c #3A526A",
"c	c #465E76",
"d	c #4A627A",
"e	c #7599BD",
"f	c #FFFFFF",
"g	c #4E667E",
"h	c #7B9FC3",
"i	c #4B637B",
"j	c #526A82",
"k	c #81A5C9",
"l	c #2C445C",
"m	c #556D85",
"n	c #85A9CD",
"o	c #273F57",
"p	c #597189",
"q	c #8BAFD3",
"r	c #587CA0",
"s	c #5E82A6",
"t	c #6387AB",
"u	c #698DB1",
"v	c #6F93B7",
"w	c #7397BB",
"x	c #799DC1",
"y	c #7FA3C7",
"z	c #84A8CC",
"A	c #8AAED2",
"B	c #1E364E",
"C	c #193149",
"D	c #0F2133",
"             ",
".............",
"+++++++++++++",
"@@@@@@@@@@@@@",
"#$%&*=-;>,')#",
"!%~{]^/(_:<[!",
"}&{|1/23:456}",
"7*]1/(3:<5787",
"5=^/(_:<970a5",
"b-/23:457cdeb",
"_;(fffffffgh_",
"2>_f<970ifjk2",
"l,:fffffffmnl",
"o'<570dgjmpqo",
"{rstuvwxyzA.{",
"BBBBBBBBBBBBB",
"CCCCCCCCCCCCC",
"DDDDDDDDDDDDD",
"             "};
