/* XPM */
static char * maximize_active_xpm[] = {
"12 19 83 1",
" 	c None",
".	c #000000",
"+	c #90B4D8",
"@	c #5B738B",
"#	c #566E86",
"$	c #516981",
"%	c #FFFFFF",
"&	c #F4FFFF",
"*	c #E8F4FF",
"=	c #DBE7F3",
"-	c #CFD9E5",
";	c #C3CDD8",
">	c #B7C0CA",
",	c #A9B2BD",
"'	c #9DA6AF",
")	c #9199A2",
"!	c #4D657D",
"~	c #ABB4BD",
"{	c #6C7278",
"]	c #676C72",
"^	c #61676C",
"/	c #5B6166",
"(	c #575B60",
"_	c #51555A",
":	c #4C4F54",
"<	c #46494E",
"[	c #404548",
"}	c #2D2E31",
"|	c #486078",
"1	c #F6FFFF",
"2	c #9BA3AB",
"3	c #5A5E63",
"4	c #3D3F43",
"5	c #435B73",
"6	c #9AA3AB",
"7	c #36393C",
"8	c #242528",
"9	c #3F576F",
"0	c #DCE8F3",
"a	c #8A9299",
"b	c #7A8187",
"c	c #71787E",
"d	c #696F75",
"e	c #494D51",
"f	c #303336",
"g	c #3A526A",
"h	c #8B9199",
"i	c #404348",
"j	c #3C3F42",
"k	c #2B2D30",
"l	c #1B1C1F",
"m	c #354D65",
"n	c #C4CFD8",
"o	c #6A7075",
"p	c #52565A",
"q	c #4A4D51",
"r	c #393C3F",
"s	c #304860",
"t	c #7B7F87",
"u	c #424548",
"v	c #313336",
"w	c #212224",
"x	c #131516",
"y	c #2C445C",
"z	c #282A2D",
"A	c #18181B",
"B	c #273F57",
"C	c #697075",
"D	c #25282A",
"E	c #1B1C1E",
"F	c #151618",
"G	c #0C0C0D",
"H	c #223A52",
"I	c #6D7279",
"J	c #434649",
"K	c #37393C",
"L	c #2A2B2E",
"M	c #1E1F21",
"N	c #121213",
"O	c #090909",
"P	c #1E364E",
"Q	c #193149",
"R	c #0F2133",
"............",
"++++++++++++",
"@@@@@@@@@@@@",
"############",
"$%%&*=-;>,')",
"!~{]^/(_:<[}",
"|12%%%%%%%34",
"56^%%%%%%%78",
"90a%bcd^3%ef",
"gh(%:<ij7%kl",
"mnb%o^3pq%r8",
"st:%uj7vk%wx",
"y~d%%%%%%%zA",
"BC[j7fkDwEFG",
"HIJ4KfL8MANO",
"PPPPPPPPPPPP",
"QQQQQQQQQQQQ",
"RRRRRRRRRRRR",
"............"};
