/* XPM */
static char * maximize_pressed_xpm[] = {
"12 19 66 1",
" 	c #000000",
".	c #90B4D8",
"+	c #5B738B",
"@	c #566E86",
"#	c #516981",
"$	c #0C1927",
"%	c #132537",
"&	c #16283A",
"*	c #192B3D",
"=	c #1C2E40",
"-	c #1E3042",
";	c #213345",
">	c #243648",
",	c #27394B",
"'	c #2A3C4E",
")	c #435E79",
"!	c #4D657D",
"~	c #1F374F",
"{	c #223A52",
"]	c #263E56",
"^	c #2A425A",
"/	c #2D455D",
"(	c #314961",
"_	c #354D65",
":	c #385068",
"<	c #3C546C",
"[	c #6084A8",
"}	c #486078",
"|	c #FFFFFF",
"1	c #3F576F",
"2	c #6488AC",
"3	c #435B73",
"4	c #6A8EB2",
"5	c #405870",
"6	c #475F77",
"7	c #7094B8",
"8	c #3A526A",
"9	c #344C64",
"0	c #3B536B",
"a	c #4A627A",
"b	c #7599BD",
"c	c #4E667E",
"d	c #7B9FC3",
"e	c #304860",
"f	c #4B637B",
"g	c #526A82",
"h	c #81A5C9",
"i	c #2C445C",
"j	c #556D85",
"k	c #85A9CD",
"l	c #273F57",
"m	c #597189",
"n	c #8BAFD3",
"o	c #587CA0",
"p	c #5E82A6",
"q	c #6387AB",
"r	c #698DB1",
"s	c #6F93B7",
"t	c #7397BB",
"u	c #799DC1",
"v	c #7FA3C7",
"w	c #84A8CC",
"x	c #8AAED2",
"y	c #1E364E",
"z	c #193149",
"A	c #0F2133",
"            ",
"............",
"++++++++++++",
"@@@@@@@@@@@@",
"#$%&*=-;>,')",
"!%~{]^/(_:<[",
"}&{|||||||12",
"3*]|||||||34",
"1=^|(_:<5|67",
"8-/|9:013|ab",
"_;(|:<136|cd",
"e>_|<536f|gh",
"i,:|||||||jk",
"l'<136acgjmn",
"{opqrstuvwx.",
"yyyyyyyyyyyy",
"zzzzzzzzzzzz",
"AAAAAAAAAAAA",
"            "};
