/* XPM */
static char * top_right_active_xpm[] = {
"4 19 35 1",
" 	c None",
".	c #000000",
"+	c #90B4D8",
"@	c #5B738B",
"#	c #435567",
"$	c #566E86",
"%	c #405264",
"&	c #516981",
"*	c #3C4E60",
"=	c #4D657D",
"-	c #394B5D",
";	c #486078",
">	c #36485A",
",	c #435B73",
"'	c #314355",
")	c #3F576F",
"!	c #2E4052",
"~	c #3A526A",
"{	c #2B3D4F",
"]	c #354D65",
"^	c #27394B",
"/	c #304860",
"(	c #243648",
"_	c #2C445C",
":	c #213345",
"<	c #273F57",
"[	c #1C2E40",
"}	c #223A52",
"|	c #192B3D",
"1	c #1E364E",
"2	c #16283A",
"3	c #193149",
"4	c #122436",
"5	c #0F2133",
"6	c #0A1825",
"....",
"+++.",
"@@#.",
"$$%.",
"&&*.",
"==-.",
";;>.",
",,'.",
"))!.",
"~~{.",
"]]^.",
"//(.",
"__:.",
"<<[.",
"}}|.",
"112.",
"334.",
"556.",
"...."};
