/* XPM */
static char * title_4_active_xpm[] = {
"3 21 6 1",
" 	c #000000",
".	c #FFFFFF",
"+	c #E6E6E6",
"@	c #CDCACD",
"#	c #C5C6C5",
"$	c #D5D6D5",
"   ",
"...",
"+++",
"@@+",
"  .",
"# .",
"$ .",
"$ .",
"$ .",
"$ .",
"$ .",
"$ .",
"$ .",
"$ .",
"$ .",
"$ .",
"  .",
"...",
"+++",
"@@@",
"   "};
