/* XPM */
static char * top_1_active_xpm[] = {
"4 21 6 1",
" 	c #000000",
".	c #FFFFFF",
"+	c #E6E6E6",
"@	c #CDCACD",
"#	c #D5D6D5",
"$	c #C5C6C5",
"    ",
"....",
"++++",
"@@@@",
"@   ",
"@ @@",
"@ @#",
"@ @#",
"@ @#",
"@ @#",
"@ @#",
"@ @#",
"@ @#",
"@ @#",
"@ @#",
"@ @#",
"@   ",
"+...",
"++++",
"$$@@",
"    "};
