/* XPM */
static char * top_left_inactive_xpm[] = {
"11 21 5 1",
" 	c #000000",
".	c #FFFFFF",
"+	c #E6E6E6",
"@	c #C5C6C5",
"#	c #CDCACD",
"           ",
" ..........",
" .+++++++++",
" .+@#++##++",
" .+# .+# .+",
" .++..++..+",
" .+++++++++",
" .+##++++++",
" .+# .+++++",
" .+++.+++++",
" .+++++++++",
" .+++++++++",
" .+++++++++",
" .+++++++++",
" .+++++++++",
" .+++++++++",
" .+++++++++",
" .+++++++++",
" .+++++++++",
" .+#@######",
" .+@       "};
