/* XPM */
static char * bottom_left_active_xpm[] = {
"10 10 6 1",
" 	c None",
".	c #000000",
"+	c #EAEAEA",
"@	c #E4E4E4",
"#	c #BFBFBF",
"$	c #C0C0C0",
".+@#$.    ",
".+@#$.    ",
".+@#$.    ",
".+@#$.    ",
".+@#$.....",
".+@#$$$$$$",
".+@#######",
".+@@@@@@@@",
".+++++++++",
".........."};
