/* XPM */
static char * close_pressed_xpm[] = {
"15 21 47 1",
" 	c None",
".	c #000000",
"+	c #EAEAEA",
"@	c #3A3A3A",
"#	c #9C9A9C",
"$	c #636563",
"%	c #E5E5E5",
"&	c #F7F7F7",
"*	c #F6F6F6",
"=	c #7B7D7B",
"-	c #F3F3F3",
";	c #F0F0F0",
">	c #ADAEAD",
",	c #949294",
"'	c #EDEDED",
")	c #C6C7C6",
"!	c #A5A6A5",
"~	c #E4E4E4",
"{	c #D6D3D6",
"]	c #B5B2B5",
"^	c #E1E1E1",
"/	c #DEDEDE",
"(	c #505050",
"_	c #D8D8D8",
":	c #CECECE",
"<	c #FFFFFF",
"[	c #C6C6C6",
"}	c #545454",
"|	c #404040",
"1	c #BFBFBF",
"2	c #8C8E8C",
"3	c #737573",
"4	c #373737",
"5	c #353535",
"6	c #BABABA",
"7	c #3B3B3B",
"8	c #323232",
"9	c #B8B8B8",
"0	c #7B797B",
"a	c #4B4B4B",
"b	c #2E2E2E",
"c	c #8C8A8C",
"d	c #9C9E9C",
"e	c #C7C7C7",
"f	c #C0C0C0",
"g	c #A5A5A5",
"h	c #7B7B7B",
"...............",
"+@#$$$$$$$$$#@%",
"&@#$$$$$$$$$#@*",
"*@=$$$$$$$$$=@-",
";@>,,,,,,,,,>@'",
"'@)!!!!!!!!!)@+",
"~@{]]]]]]]]]{@^",
"/@)!(((!(((!)@_",
":@],(<<@<<(,]@:",
"[@#==}<<<|==#@[",
"1@23334<53332@1",
"6@2337<<<8332@6",
"9@20a<<b<<(02@9",
"6@c3(((3(((3c@6",
"1@c333333333c@1",
"[@d,,,,,,,,,d@[",
"e@@@@@@@@@@@@@e",
"fffffffffffffff",
"ggggggggggggggg",
"hhhhhhhhhhhhhhh",
"..............."};
