/* XPM */
static char * hide_pressed_xpm[] = {
"15 21 45 1",
" 	c None",
".	c #000000",
"+	c #E5E5E5",
"@	c #3A3A3A",
"#	c #9C9A9C",
"$	c #636563",
"%	c #676767",
"&	c #F6F6F6",
"*	c #F3F3F3",
"=	c #7B7D7B",
"-	c #666666",
";	c #EDEDED",
">	c #ADAEAD",
",	c #949294",
"'	c #919191",
")	c #EAEAEA",
"!	c #C6C7C6",
"~	c #A5A6A5",
"{	c #A6A6A6",
"]	c #E1E1E1",
"^	c #D6D3D6",
"/	c #B5B2B5",
"(	c #B2B2B2",
"_	c #D8D8D8",
":	c #CECECE",
"<	c #505050",
"[	c #C6C6C6",
"}	c #FFFFFF",
"|	c #BFBFBF",
"1	c #8C8E8C",
"2	c #737573",
"3	c #767676",
"4	c #BABABA",
"5	c #777777",
"6	c #B8B8B8",
"7	c #7B797B",
"8	c #787878",
"9	c #8C8A8C",
"0	c #757575",
"a	c #9C9E9C",
"b	c #909090",
"c	c #C7C7C7",
"d	c #C0C0C0",
"e	c #A5A5A5",
"f	c #7B7B7B",
"...............",
"+@#$%%%%%%%$#@+",
"&@#$%%%%%%%$#@&",
"*@=$-------$=@*",
";@>,''''''',>@;",
")@!~{{{{{{{~!@)",
"]@^/(((((((/^@]",
"_@!~{{{{{{{~!@_",
":@/,<<<<<<<,/@:",
"[@#=<}}}}}<=#@[",
"|@123<}}}<321@|",
"4@1255<}<5521@4",
"6@17788<78871@6",
"4@92000000029@4",
"|@92000000029@|",
"[@a,bbbbbbb,a@[",
"c@@@@@@@@@@@@@c",
"ddddddddddddddd",
"eeeeeeeeeeeeeee",
"fffffffffffffff",
"..............."};
