/* XPM */
static char * left_inactive_xpm[] = {
"6 6 5 1",
" 	c #000000",
".	c #EAEAEA",
"+	c #E4E4E4",
"@	c #BFBFBF",
"#	c #C0C0C0",
" .+@# ",
" .+@# ",
" .+@# ",
" .+@# ",
" .+@# ",
" .+@# "};
