/* XPM */
static char * maximize_pressed_xpm[] = {
"15 21 42 1",
" 	c None",
".	c #000000",
"+	c #E5E5E5",
"@	c #3A3A3A",
"#	c #9C9A9C",
"$	c #636563",
"%	c #676767",
"&	c #F6F6F6",
"*	c #F3F3F3",
"=	c #7B7D7B",
"-	c #666666",
";	c #EDEDED",
">	c #ADAEAD",
",	c #949294",
"'	c #919191",
")	c #EAEAEA",
"!	c #C6C7C6",
"~	c #A5A6A5",
"{	c #A6A6A6",
"]	c #E1E1E1",
"^	c #D6D3D6",
"/	c #B5B2B5",
"(	c #B2B2B2",
"_	c #D8D8D8",
":	c #CECECE",
"<	c #505050",
"[	c #C6C6C6",
"}	c #FFFFFF",
"|	c #BFBFBF",
"1	c #8C8E8C",
"2	c #737573",
"3	c #BABABA",
"4	c #B8B8B8",
"5	c #7B797B",
"6	c #8C8A8C",
"7	c #757575",
"8	c #9C9E9C",
"9	c #909090",
"0	c #C7C7C7",
"a	c #C0C0C0",
"b	c #A5A5A5",
"c	c #7B7B7B",
"...............",
"+@#$%%%%%%%$#@+",
"&@#$%%%%%%%$#@&",
"*@=$-------$=@*",
";@>,''''''',>@;",
")@!~{{{{{{{~!@)",
"]@^/(((((((/^@]",
"_@!~{{{{{{{~!@_",
":@/,,,,<,,,,/@:",
"[@#===<}<===#@[",
"|@122<}}}<221@|",
"3@12<}}}}}<21@3",
"4@15<<<<<<<51@4",
"3@62777777726@3",
"|@62777777726@|",
"[@8,9999999,8@[",
"0@@@@@@@@@@@@@0",
"aaaaaaaaaaaaaaa",
"bbbbbbbbbbbbbbb",
"ccccccccccccccc",
"..............."};
