/* XPM */
static char * title_2_inactive_xpm[] = {
"10 21 31 1",
" 	c #000000",
".	c #3A3A3A",
"+	c #7F7F7F",
"@	c #515151",
"#	c #636363",
"$	c #505050",
"%	c #929292",
"&	c #767676",
"*	c #B2B2B2",
"=	c #8B8B8B",
"-	c #BFBFBF",
";	c #999999",
">	c #757575",
",	c #787878",
"'	c #FCFCFC",
")	c #7C7C7C",
"!	c #646464",
"~	c #4F4F4F",
"{	c #737373",
"]	c #5E5E5E",
"^	c #474747",
"/	c #484848",
"(	c #5F5F5F",
"_	c #464646",
":	c #6F6F6F",
"<	c #5D5D5D",
"[	c #626262",
"}	c #828282",
"|	c #C0C0C0",
"1	c #A5A5A5",
"2	c #7B7B7B",
"          ",
".+@@@@@@@@",
".#$$$$$$$$",
".%&&&&&&&&",
".*========",
".-;;;;;;;;",
".*==>>>===",
".;,,#'#,,,",
".)!!~~~!!!",
".{]]^^^]]]",
".{]]/'/]]]",
".{((/_/(((",
".:<<<[<<<<",
".:<<<<<<<<",
".:<<<<<<<<",
".}>>{&{>>>",
"..........",
"||||||||||",
"1111111111",
"2222222222",
"          "};
