/* XPM */
static char * hide_pressed_xpm[] = {
"14 19 40 1",
" 	c None",
".	c #666C87",
"+	c #000000",
"@	c #0A0D12",
"#	c #0F1218",
"$	c #161B24",
"%	c #15181E",
"&	c #1C2029",
"*	c #2A303D",
"=	c #191C25",
"-	c #232732",
";	c #343A4B",
">	c #1E222B",
",	c #292E3A",
"'	c #3D4557",
")	c #242731",
"!	c #303543",
"~	c #484F64",
"{	c #282D37",
"]	c #373C4B",
"^	c #525A70",
"/	c #2D313F",
"(	c #3D4254",
"_	c #5B637E",
":	c #333645",
"<	c #44495C",
"[	c #CCCCCC",
"}	c #666D8A",
"|	c #4B5065",
"1	c #707897",
"2	c #3C4051",
"3	c #51576D",
"4	c #7982A3",
"5	c #424658",
"6	c #585E76",
"7	c #848DB1",
"8	c #464B5E",
"9	c #5F657E",
"0	c #8E97BD",
"a	c #99A2CA",
"..............",
"++++++++++++++",
"++++++++++++++",
"++++++++++++++",
"@############$",
"%&&&&&&&&&&&&*",
"=------------;",
">,,,,,,,,,,,,'",
")!!!!!!!!!!!!~",
"{]]]]]]]]]]]]^",
"/((((((((((((_",
":<<<[[[[[[<<<}",
"]|||[[[[[[|||1",
"23333333333334",
"56666666666667",
"89999999999990",
"aaaaaaaaaaaaaa",
"++++++++++++++",
".............."};
