/* XPM */
static char * left_active_xpm[] = {
"3 3 3 1",
" 	c None",
".	c #666C87",
"+	c #000000",
".+.",
".+.",
".+."};
