/* XPM */
static char * title_4_active_xpm[] = {
"3 19 32 1",
" 	c None",
".	c #666C87",
"+	c #000000",
"@	c #040406",
"#	c #060609",
"$	c #0D0E12",
"%	c #13151B",
"&	c #14151B",
"*	c #1E1F28",
"=	c #1B1C24",
"-	c #282A36",
";	c #21242D",
">	c #313643",
",	c #282B36",
"'	c #3C4051",
")	c #2F323F",
"!	c #464B5E",
"~	c #363948",
"{	c #51556C",
"]	c #3D4051",
"^	c #5B6079",
"/	c #43485A",
"(	c #646C87",
"_	c #4A4F63",
":	c #6F7694",
"<	c #51566C",
"[	c #7981A2",
"}	c #585D75",
"|	c #848BAF",
"1	c #5F647E",
"2	c #8E96BD",
"3	c #99A2CA",
"...",
"+++",
"@#+",
"$%+",
"&*+",
"=-+",
";>+",
",'+",
")!+",
"~{+",
"]^+",
"/(+",
"_:+",
"<[+",
"}|+",
"12+",
"33+",
"+++",
"..."};
