/* XPM */
static char * title_1_active_xpm[] = {
"1 23 15 1",
" 	c #B4B4B4",
".	c #EDEDED",
"+	c #D9D9D9",
"@	c #000000",
"#	c #838383",
"$	c #7C7C7C",
"%	c #747474",
"&	c #6B6B6B",
"*	c #636363",
"=	c #5A5A5A",
"-	c #515151",
";	c #484848",
">	c #737373",
",	c #ACACAC",
"'	c #D3D3D3",
" ",
".",
"+",
"@",
"#",
"$",
"%",
"&",
"*",
"=",
"-",
";",
"@",
"@",
"@",
"@",
"@",
"@",
"@",
"@",
">",
",",
"'"};
