/* XPM */
static char * bottom_inactive_xpm[] = {
"1 4 2 1",
" 	c #0E171E",
".	c #69ACE4",
" ",
".",
".",
" "};
