/* XPM */
static char * shade_pressed_xpm[] = {
"15 23 72 1",
" 	c #000000",
".	c #B6DCFC",
"+	c #02C1EF",
"@	c #02BDEE",
"#	c #02B8EC",
"$	c #002F55",
"%	c #02B3E9",
"&	c #848602",
"*	c #8C8D02",
"=	c #959702",
"-	c #02AEE7",
";	c #868802",
">	c #898A02",
",	c #8F9102",
"'	c #979902",
")	c #9FA002",
"!	c #01A8E4",
"~	c #F4F4E6",
"{	c #F5F5E6",
"]	c #A1A302",
"^	c #A7A907",
"/	c #01A1E2",
"(	c #888A02",
"_	c #8D8F02",
":	c #949502",
"<	c #9B9D02",
"[	c #A2A402",
"}	c #A8AA0B",
"|	c #ADAF18",
"1	c #B0B120",
"2	c #019CDF",
"3	c #8A8C02",
"4	c #919302",
"5	c #999B02",
"6	c #A5A702",
"7	c #AAAB0F",
"8	c #B0B221",
"9	c #B3B429",
"0	c #B3B52B",
"a	c #0195DD",
"b	c #8E8F02",
"c	c #A8AA0A",
"d	c #ADAF19",
"e	c #B1B325",
"f	c #B7B834",
"g	c #B8BA39",
"h	c #B7B936",
"i	c #018FDA",
"j	c #949602",
"k	c #A9AB0E",
"l	c #B5B730",
"m	c #BABB3D",
"n	c #BDBF46",
"o	c #C2C352",
"p	c #BEC049",
"q	c #0189D7",
"r	c #9D9F02",
"s	c #A9AA0C",
"t	c #B5B62E",
"u	c #BEC048",
"v	c #C2C353",
"w	c #C5C65B",
"x	c #C8CA65",
"y	c #0184D5",
"z	c #C4C558",
"A	c #C7C860",
"B	c #CBCC6D",
"C	c #CCCD6F",
"D	c #C9CB68",
"E	c #017ED3",
"F	c #017AD1",
"G	c #0176CF",
"               ",
"...............",
"...............",
"               ",
"+++++++++++++++",
"@@@@@@@@@@@@@@@",
"##$         $##",
"%% &&&&&&&*= %%",
"-- &&&&;>,') --",
"!! &;~~~{{]^ !!",
"// (_:<)[}|1 //",
"22 345]67890 22",
"aa b=)cdefgh aa",
"ii j)klmnoop ii",
"qq rstuvwxxw qq",
"yy }tnzAxBCD yy",
"EE$         $EE",
"FFFFFFFFFFFFFFF",
"GGGGGGGGGGGGGGG",
"               ",
"...............",
"...............",
"               "};
