/* XPM */
static char * top_right_active_xpm[] = {
"6 23 17 1",
" 	c #000000",
".	c #B6DCFC",
"+	c #02C1EF",
"@	c #02BDEE",
"#	c #02B8EC",
"$	c #02B3E9",
"%	c #02AEE7",
"&	c #01A8E4",
"*	c #01A1E2",
"=	c #019CDF",
"-	c #0195DD",
";	c #018FDA",
">	c #0189D7",
",	c #0184D5",
"'	c #017ED3",
")	c #017AD1",
"!	c #0176CF",
"      ",
"..... ",
"..... ",
"   .. ",
"++ .. ",
"@@ .. ",
"## .. ",
"$$ .. ",
"%% .. ",
"&& .. ",
"** .. ",
"== .. ",
"-- .. ",
";; .. ",
">> .. ",
",, .. ",
"'' .. ",
")) .. ",
"!! .. ",
"   .. ",
"..... ",
"..... ",
"   .. "};
