/* XPM */
static char * bottom_active_xpm[] = {
"5 3 5 1",
" 	c None",
".	c #E7E7E7",
"+	c #E6E6E6",
"@	c #A9A9A9",
"#	c #AAAAAA",
"...+.",
"+++++",
"@#@@#"};
