/* XPM */
static char * menu_inactive_xpm[] = {
"10 24 35 1",
" 	c None",
".	c #FEFEFE",
"+	c #FFFFFF",
"@	c #E7E7E7",
"#	c #E6E6E6",
"$	c #DFDFDF",
"%	c #CECECE",
"&	c #C5C5C5",
"*	c #C6C6C6",
"=	c #DEDEDE",
"-	c #D5D5D5",
";	c #D3D3D3",
">	c #EAEAEA",
",	c #F4F4F4",
"'	c #D4D4D4",
")	c #D6D6D6",
"!	c #EFEFEF",
"~	c #F2F2F2",
"{	c #F3F3F3",
"]	c #F0F0F0",
"^	c #CFCFCF",
"/	c #F1F1F1",
"(	c #EEEEEE",
"_	c #EDEDED",
":	c #E1E1E1",
"<	c #ECECEC",
"[	c #EBEBEB",
"}	c #E5E5E5",
"|	c #CCCCCC",
"1	c #DDDDDD",
"2	c #E8E8E8",
"3	c #E9E9E9",
"4	c #D0D0D0",
"5	c #F8F8F8",
"6	c #F9F9F9",
".+..+....+",
"@@@@#@@#@#",
"@@@@@@@@##",
"@@@@@@@#@@",
"@@@@@@@@@@",
"@@@@@@@@@@",
"@@@@@@@@@@",
"@@$%&*%=@#",
"@-;>,,>')@",
"$;!~~{~];=",
"^@]//]/]@^",
"*!!!!!!!!*",
"&((_(__((&",
"^:<[<<[<:^",
"}|@[>[>@|}",
"[1|$23=|1[",
"@!34&&^3]@",
"@@[,56,[@@",
"@@@@@@@@@@",
"@@@@@@@@@@",
"@@@@@@@@@@",
"@@@@@@@@@@",
"@@@@@@@@@@",
"@@@@@@@@@@"};
