/* XPM */
static char * title_1_active_xpm[] = {
"2 24 4 1",
" 	c None",
".	c #FEFEFE",
"+	c #E7E7E7",
"@	c #E6E6E6",
"..",
"++",
"++",
"++",
"++",
"++",
"++",
"++",
"++",
"++",
"@@",
"@@",
"++",
"++",
"++",
"++",
"@@",
"++",
"++",
"++",
"++",
"++",
"++",
"++"};
