/* XPM */
static char * bottom_right_active_xpm[] = {
"6 6 4 1",
" 	c None",
".	c #CE5C00",
"+	c #F68517",
"@	c #FCAF3E",
"  .+@.",
"  .+@.",
"...+@.",
"++++@.",
"@@@@@.",
"......"};
