/* XPM */
static char * right_inactive_xpm[] = {
"4 4 2 1",
" 	c #CE5C00",
".	c #F57900",
" .. ",
" .. ",
" .. ",
" .. "};
