/* XPM */
static char * title_1_inactive_xpm[] = {
"1 19 2 1",
" 	c #CE5C00",
".	c #F57900",
" ",
".",
".",
".",
".",
".",
".",
".",
".",
".",
".",
".",
".",
".",
".",
".",
".",
".",
" "};
