/* XPM */
static char * top_left_inactive_xpm[] = {
"4 19 2 1",
" 	c #CE5C00",
".	c #F57900",
"    ",
" ...",
" ...",
" ...",
" ...",
" ...",
" ...",
" ...",
" ...",
" ...",
" ...",
" ...",
" ...",
" ...",
" ...",
" ...",
" ...",
" ...",
" .. "};
