/* XPM */
static char * bottom_active_xpm[] = {
"6 3 3 1",
" 	c None",
".	c #D2D2D2",
"+	c #7D7D7D",
"......",
"......",
"++++++"};
