/* XPM */
static char * hide_active_xpm[] = {
"14 24 46 1",
" 	c None",
".	c #7D7D7D",
"+	c #F8F8F8",
"@	c #D2D2D2",
"#	c #D3D3D3",
"$	c #BEBEBE",
"%	c #A1A1A1",
"&	c #8B8B8B",
"*	c #D4D4D4",
"=	c #ABABAB",
"-	c #979797",
";	c #B1B1B1",
">	c #BCBCBC",
",	c #9F9F9F",
"'	c #B6B6B6",
")	c #BFBFBF",
"!	c #C0C0C0",
"~	c #A8A8A8",
"{	c #B7B7B7",
"]	c #C2C2C2",
"^	c #CCCCCC",
"/	c #BBBBBB",
"(	c #D5D5D5",
"_	c #B8B8B8",
":	c #FFFFFF",
"<	c #E5E5E5",
"[	c #CACACA",
"}	c #A9A9A9",
"|	c #EEEEEE",
"1	c #E0E0E0",
"2	c #C3C3C3",
"3	c #E7E7E7",
"4	c #F6F6F6",
"5	c #E4E4E4",
"6	c #EAEAEA",
"7	c #F0F0F0",
"8	c #DFDFDF",
"9	c #CFCFCF",
"0	c #C4C4C4",
"a	c #ECECEC",
"b	c #F3F3F3",
"c	c #FAFAFA",
"d	c #FEFEFE",
"e	c #F2F2F2",
"f	c #F4F4F4",
"g	c #BABABA",
"..............",
"++++++++++++++",
"@@@@@@@@@@@@@@",
"##############",
"###$%&..&%$###",
"**=-%;>>;%-=**",
"*=,'))))))',=*",
"!~>))))))))>~!",
"'{)))))))))){'",
"'))))))))))))'",
"{)))))))))))){",
"]))))))))))))]",
"^))$/$))$/$))^",
"())_::::::_))(",
"<[)_}~}}~}_)[<",
"|12$_{{{{_$21|",
"345[))))))[543",
"66+78900987+66",
"aaabcd::dcbaaa",
"77777777777777",
"eeeeeeeeeeeeee",
"ffffffffffffff",
"gggggggggggggg",
"[[[[[[[[[[[[[["};
