/* XPM */
static char * maximize_active_xpm[] = {
"14 24 47 1",
" 	c None",
".	c #7D7D7D",
"+	c #F8F8F8",
"@	c #D2D2D2",
"#	c #D3D3D3",
"$	c #BEBEBE",
"%	c #A1A1A1",
"&	c #8B8B8B",
"*	c #D4D4D4",
"=	c #ABABAB",
"-	c #979797",
";	c #B1B1B1",
">	c #BCBCBC",
",	c #9F9F9F",
"'	c #B6B6B6",
")	c #BFBFBF",
"!	c #C0C0C0",
"~	c #A8A8A8",
"{	c #B7B7B7",
"]	c #FFFFFF",
"^	c #B8B8B8",
"/	c #A0A0A0",
"(	c #C2C2C2",
"_	c #B0B0B0",
":	c #CCCCCC",
"<	c #D5D5D5",
"[	c #E5E5E5",
"}	c #CACACA",
"|	c #A9A9A9",
"1	c #EEEEEE",
"2	c #E0E0E0",
"3	c #C3C3C3",
"4	c #E7E7E7",
"5	c #F6F6F6",
"6	c #E4E4E4",
"7	c #EAEAEA",
"8	c #F0F0F0",
"9	c #DFDFDF",
"0	c #CFCFCF",
"a	c #C4C4C4",
"b	c #ECECEC",
"c	c #F3F3F3",
"d	c #FAFAFA",
"e	c #FEFEFE",
"f	c #F2F2F2",
"g	c #F4F4F4",
"h	c #BABABA",
"..............",
"++++++++++++++",
"@@@@@@@@@@@@@@",
"##############",
"###$%&..&%$###",
"**=-%;>>;%-=**",
"*=,'))))))',=*",
"!~>))))))))>~!",
"'{)$]]]]]]$){'",
"'))^]]]]]]^))'",
"{)){]/%%/]{)){",
"()){]_{{_]{))(",
":)){]{)){]{)):",
"<)){]]]]]]{))<",
"[})^|~||~|^)}[",
"123$^{{{{^$321",
"456}))))))}654",
"77+890aa098+77",
"bbbcde]]edcbbb",
"88888888888888",
"ffffffffffffff",
"gggggggggggggg",
"hhhhhhhhhhhhhh",
"}}}}}}}}}}}}}}"};
