/* XPM */
static char * maximize_pressed_xpm[] = {
"14 24 68 1",
" 	c None",
".	c #7D7D7D",
"+	c #F8F8F8",
"@	c #D2D2D2",
"#	c #D3D3D3",
"$	c #BEBEBE",
"%	c #A1A1A1",
"&	c #8B8B8B",
"*	c #D4D4D4",
"=	c #ABABAB",
"-	c #929292",
";	c #8C8C8C",
">	c #888888",
",	c #959595",
"'	c #C0C0C0",
")	c #A3A3A3",
"!	c #999999",
"~	c #B6B6B6",
"{	c #A4A4A4",
"]	c #919191",
"^	c #8E8E8E",
"/	c #FFFFFF",
"(	c #A2A2A2",
"_	c #979797",
":	c #8A8A8A",
"<	c #B7B7B7",
"[	c #9F9F9F",
"}	c #9C9C9C",
"|	c #5B5B5B",
"1	c #5F5F5F",
"2	c #C2C2C2",
"3	c #A5A5A5",
"4	c #909090",
"5	c #838383",
"6	c #CCCCCC",
"7	c #AFAFAF",
"8	c #A9A9A9",
"9	c #969696",
"0	c #D5D5D5",
"a	c #B8B8B8",
"b	c #AEAEAE",
"c	c #9B9B9B",
"d	c #E5E5E5",
"e	c #C8C8C8",
"f	c #808080",
"g	c #7C7C7C",
"h	c #EEEEEE",
"i	c #E0E0E0",
"j	c #C1C1C1",
"k	c #A8A8A8",
"l	c #E7E7E7",
"m	c #F6F6F6",
"n	c #E4E4E4",
"o	c #CACACA",
"p	c #BDBDBD",
"q	c #BCBCBC",
"r	c #EAEAEA",
"s	c #F0F0F0",
"t	c #DFDFDF",
"u	c #CFCFCF",
"v	c #C4C4C4",
"w	c #ECECEC",
"x	c #F3F3F3",
"y	c #FAFAFA",
"z	c #FEFEFE",
"A	c #F2F2F2",
"B	c #F4F4F4",
"C	c #BABABA",
"..............",
"++++++++++++++",
"@@@@@@@@@@@@@@",
"##############",
"###$%&..&%$###",
"**=-;&>>&;-=**",
"*=,->>>>>>-,=*",
"')!;;;;;;;;!)'",
"~{]^//////^]{~",
"~(_://////:_(~",
"<[}&/|11|/&}[<",
"23(4/5445/4(32",
"6789/9889/9876",
"0abc//////cba0",
"de<{fgffgf{<ed",
"hij<k{{{{k<jih",
"lmno$pqqp$onml",
"rr+stuvvuts+rr",
"wwwxyz//zyxwww",
"ssssssssssssss",
"AAAAAAAAAAAAAA",
"BBBBBBBBBBBBBB",
"CCCCCCCCCCCCCC",
"oooooooooooooo"};
