/* XPM */
static char * right_active_xpm[] = {
"3 3 3 1",
" 	c None",
".	c #D2D2D2",
"+	c #7D7D7D",
"..+",
"..+",
"..+"};
