/* XPM */
static char * title_4_active_xpm[] = {
"4 24 23 1",
" 	c None",
".	c #7D7D7D",
"+	c #F8F8F8",
"@	c #D2D2D2",
"#	c #D3D3D3",
"$	c #D4D4D4",
"%	c #D5D5D5",
"&	c #D7D7D7",
"*	c #D8D8D8",
"=	c #D9D9D9",
"-	c #DBDBDB",
";	c #DDDDDD",
">	c #DFDFDF",
",	c #E1E1E1",
"'	c #E4E4E4",
")	c #E7E7E7",
"!	c #EAEAEA",
"~	c #ECECEC",
"{	c #F0F0F0",
"]	c #F2F2F2",
"^	c #F4F4F4",
"/	c #BABABA",
"(	c #CACACA",
"....",
"++++",
"@@@@",
"####",
"####",
"$$$$",
"$$$$",
"%%%%",
"&&&&",
"****",
"====",
"----",
";;;;",
">>>>",
",,,,",
"''''",
"))))",
"!!!!",
"~~~~",
"{{{{",
"]]]]",
"^^^^",
"////",
"(((("};
