/* XPM */
static char * title_3_inactive_xpm[] = {
"4 24 3 1",
" 	c None",
".	c #7D7D7D",
"+	c #D2D2D2",
"....",
"++++",
"++++",
"++++",
"++++",
"++++",
"++++",
"++++",
"++++",
"++++",
"++++",
"++++",
"++++",
"++++",
"++++",
"++++",
"++++",
"++++",
"++++",
"++++",
"++++",
"++++",
"++++",
"++++"};
