/* XPM */
static char * top_left_active_xpm[] = {
"4 24 37 1",
" 	c None",
".	c #7D7D7D",
"+	c #F8F8F8",
"@	c #D2D2D2",
"#	c #D3D3D3",
"$	c #D4D4D4",
"%	c #D5D5D5",
"&	c #7C7C7C",
"*	c #D6D6D6",
"=	c #D7D7D7",
"-	c #D9D9D9",
";	c #D8D8D8",
">	c #7B7B7B",
",	c #DBDBDB",
"'	c #DCDCDC",
")	c #DFDFDF",
"!	c #DDDDDD",
"~	c #E0E0E0",
"{	c #E4E4E4",
"]	c #E1E1E1",
"^	c #7A7A7A",
"/	c #E5E5E5",
"(	c #E8E8E8",
"_	c #E7E7E7",
":	c #EBEBEB",
"<	c #EAEAEA",
"[	c #797979",
"}	c #EDEDED",
"|	c #ECECEC",
"1	c #F0F0F0",
"2	c #F2F2F2",
"3	c #787878",
"4	c #F4F4F4",
"5	c #C0C0C0",
"6	c #BABABA",
"7	c #CCCCCC",
"8	c #CACACA",
"....",
".+++",
".@@@",
".###",
".$##",
".$$$",
".%$$",
".*%%",
".===",
".-;;",
".,--",
".',,",
".)!!",
".~))",
".{]]",
"./{{",
".(__",
".:<<",
".}||",
".111",
".222",
".444",
".566",
".788"};
