/* XPM */
static char * bottom_left_active_xpm[] = {
"6 6 4 1",
" 	c None",
".	c #204A87",
"+	c #729FCF",
"@	c #4673AC",
".+@.  ",
".+@.  ",
".+@...",
".+@@@@",
".+++++",
"......"};
