/* XPM */
static char * close_inactive_xpm[] = {
"7 19 3 1",
" 	c #204A87",
".	c #3465A4",
"+	c #729FCF",
"       ",
".......",
".......",
".......",
".......",
".......",
"       ",
" +++++ ",
" + + + ",
" ++ ++ ",
" + + + ",
" +++++ ",
"       ",
".......",
".......",
".......",
".......",
".......",
"       "};
