/* XPM */
static char * top_left_active_xpm[] = {
"4 19 18 1",
" 	c #204A87",
".	c #729FCF",
"+	c #305D96",
"@	c #305E98",
"#	c #315F9A",
"$	c #32609C",
"%	c #32629F",
"&	c #3363A1",
"*	c #3464A3",
"=	c #3465A4",
"-	c #3666A5",
";	c #3868A6",
">	c #3A6AA7",
",	c #3E6CA8",
"'	c #406EA9",
")	c #4270AA",
"!	c #4572AB",
"~	c #4673AC",
"    ",
" ...",
" .++",
" .@@",
" .##",
" .$$",
" .%%",
" .&&",
" .**",
" .==",
" .--",
" .;;",
" .>>",
" .,,",
" .''",
" .))",
" .!!",
" .~~",
" .~ "};
