/* XPM */
static char * left_active_xpm[] = {
"4 4 3 1",
" 	c #0C0C0C",
".	c #656565",
"+	c #FFFFFF",
" . +",
" . +",
" . +",
" . +"};
