/* XPM */
static char * bottom_right_active_xpm[] = {
"6 6 9 1",
" 	c None",
".	c #E0E174",
"+	c #CDCE60",
"@	c #777330",
"#	c #E1E278",
"$	c #CECF60",
"%	c #E1E279",
"&	c #C0C15A",
"*	c #BEBF58",
"   .+@",
"   #$@",
"   #$@",
"%###$@",
"&****@",
"@@@@@@"};
