/* XPM */
static char * bottom_left_active_xpm[] = {
"6 6 16 1",
" 	c None",
".	c #777330",
"+	c #E0E173",
"@	c #D3D462",
"#	c #E1E278",
"$	c #DEDF6A",
"%	c #E0E176",
"&	c #DFE06F",
"*	c #DEDF6B",
"=	c #D9DA65",
"-	c #DEDF6C",
";	c #CACB5E",
">	c #B9B956",
",	c #B3B353",
"'	c #B7B855",
")	c #BEBF58",
".+@   ",
".#$   ",
".%&   ",
".*==-%",
".;>,')",
"......"};
