/* XPM */
static char * bottom_active_xpm[] = {
"1 9 8 1",
" 	c #203E60",
".	c #7595AA",
"+	c #426B87",
"@	c #3A647D",
"#	c #305871",
"$	c #2A4F69",
"%	c #20445C",
"&	c #0F2B39",
" ",
".",
"+",
"@",
"#",
"$",
"%",
"&",
" "};
