/* XPM */
static char * close_active_xpm[] = {
"20 22 147 2",
"  	c #1F3E60",
". 	c #A6CCE3",
"+ 	c #86B9D8",
"@ 	c #83B6D5",
"# 	c #6DA1C0",
"$ 	c #578BAC",
"% 	c #457A9A",
"& 	c #396E8E",
"* 	c #7FB2D2",
"= 	c #76A9C9",
"- 	c #578CAC",
"; 	c #37698B",
"> 	c #2C5879",
", 	c #264B6D",
"' 	c #214264",
") 	c #7BAECE",
"! 	c #73A6C6",
"~ 	c #5286A7",
"{ 	c #336283",
"] 	c #284868",
"^ 	c #476681",
"/ 	c #607F97",
"( 	c #708FA5",
"_ 	c #6C8DA2",
": 	c #597A92",
"< 	c #3F607D",
"[ 	c #264666",
"} 	c #77AACA",
"| 	c #598CAD",
"1 	c #376586",
"2 	c #31506F",
"3 	c #5A7992",
"4 	c #698BA1",
"5 	c #597F97",
"6 	c #4E7690",
"7 	c #49738D",
"8 	c #4E7790",
"9 	c #567D95",
"0 	c #456985",
"a 	c #2A4B6B",
"b 	c #72A6C5",
"c 	c #669AB9",
"d 	c #427495",
"e 	c #274767",
"f 	c #56758E",
"g 	c #5E8298",
"h 	c #49718A",
"i 	c #416B85",
"j 	c #436D86",
"k 	c #487089",
"l 	c #375E7A",
"m 	c #234364",
"n 	c #6DA1C1",
"o 	c #5A8EAF",
"p 	c #386284",
"q 	c #3D5D79",
"r 	c #5C7F95",
"s 	c #446D85",
"t 	c #FFFFFF",
"u 	c #3C6680",
"v 	c #3E6881",
"w 	c #3B647E",
"x 	c #2A4C6A",
"y 	c #689CBC",
"z 	c #568AAA",
"A 	c #2D5273",
"B 	c #496A83",
"C 	c #496E86",
"D 	c #37607A",
"E 	c #2B4D67",
"F 	c #6397B7",
"G 	c #588CAD",
"H 	c #244466",
"I 	c #4D6F85",
"J 	c #3A6078",
"K 	c #325A73",
"L 	c #294B61",
"M 	c #5E92B2",
"N 	c #244567",
"O 	c #41647B",
"P 	c #2D556D",
"Q 	c #2C546C",
"R 	c #2A5168",
"S 	c #244458",
"T 	c #598DAD",
"U 	c #6296B6",
"V 	c #325779",
"W 	c #32546E",
"X 	c #274E66",
"Y 	c #23475C",
"Z 	c #1E3D55",
"` 	c #5388A8",
" .	c #6095B4",
"..	c #4A7495",
"+.	c #244562",
"@.	c #22485F",
"#.	c #22475E",
"$.	c #21455B",
"%.	c #1C3B4D",
"&.	c #1D3B55",
"*.	c #4E83A3",
"=.	c #588CAC",
"-.	c #6698B7",
";.	c #1F3E5F",
">.	c #1D3F58",
",.	c #1C3F55",
"'.	c #1D4158",
").	c #1D4259",
"!.	c #18374B",
"~.	c #18344B",
"{.	c #1E3D5D",
"].	c #497E9E",
"^.	c #5E8CAC",
"/.	c #1D3D5C",
"(.	c #183850",
"_.	c #15364A",
":.	c #16394F",
"<.	c #173B52",
"[.	c #173A50",
"}.	c #15364B",
"|.	c #133042",
"1.	c #153147",
"2.	c #1C3A59",
"3.	c #45799A",
"4.	c #4C80A1",
"5.	c #6290B0",
"6.	c #183751",
"7.	c #143045",
"8.	c #102B3C",
"9.	c #102A3A",
"0.	c #132D42",
"a.	c #18344E",
"b.	c #1D3C5C",
"c.	c #417596",
"d.	c #497D9E",
"e.	c #6498B7",
"f.	c #73A4C3",
"g.	c #5680A0",
"h.	c #3B5F80",
"i.	c #274869",
"j.	c #3D7192",
"k.	c #5184A5",
"l.	c #6598B8",
"m.	c #75A8C8",
"n.	c #81B4D3",
"o.	c #396E8F",
"p.	c #264C63",
"                                        ",
". . . . . . . . . . . . . . . . . . . . ",
"+ + + + + + + + + + + + + + + + + + + + ",
"@ @ @ @ @ @ # $ % & & % $ # @ @ @ @ @ @ ",
"* * * * = - ; > , ' ' , > ; - = * * * * ",
") ) ) ! ~ { ] ^ / ( _ : < [ { ~ ! ) ) ) ",
"} } } | 1 2 3 4 5 6 7 8 9 0 a 1 | } } } ",
"b b c d e f g h i i i i j k l m d c b b ",
"n n o p q r s t u u u u t v w x p o n n ",
"y y z A B C D D t D D t D D D E A z y y ",
"F F G H I J K K K t t K K K K L H G F F ",
"M M M N O P Q Q Q t t Q Q Q R S N M M M ",
"T T U V W X X X t X X t X X Y Z V U T T ",
"` `  ...+.@.#.t @.@.@.@.t $.%.&... .` ` ",
"*.*.=.-.;.>.,.'.).).).).,.!.~.{.-.=.*.*.",
"].].].U ^./.(._.:.<.[.}.|.1.2.^.U ].].].",
"3.3.3.4.y 5.{.6.7.8.9.0.a.b.5.y 4.3.3.3.",
"c.c.c.c.d.e.f.g.h.i.i.h.g.f.e.d.c.c.c.c.",
"j.j.j.j.j.j.k.l.m.n.n.m.l.k.j.j.j.j.j.j.",
"o.o.o.o.o.o.o.o.o.o.o.o.o.o.o.o.o.o.o.o.",
"p.p.p.p.p.p.p.p.p.p.p.p.p.p.p.p.p.p.p.p.",
"                                        "};
