/* XPM */
static char * hide_pressed_xpm[] = {
"20 22 97 2",
"  	c #1F3E60",
". 	c #A6CCE3",
"+ 	c #86B9D8",
"@ 	c #83B6D5",
"# 	c #6DA1C0",
"$ 	c #578BAC",
"% 	c #457A9A",
"& 	c #396E8E",
"* 	c #7FB2D2",
"= 	c #76A9C9",
"- 	c #578CAC",
"; 	c #37698B",
"> 	c #2C5879",
", 	c #264B6D",
"' 	c #214264",
") 	c #7BAECE",
"! 	c #73A6C6",
"~ 	c #5286A7",
"{ 	c #336283",
"] 	c #1E3D5E",
"^ 	c #193A57",
"/ 	c #163852",
"( 	c #13374E",
"_ 	c #77AACA",
": 	c #598CAD",
"< 	c #376586",
"[ 	c #1D3D5C",
"} 	c #183B54",
"| 	c #15394F",
"1 	c #72A6C5",
"2 	c #669AB9",
"3 	c #427495",
"4 	c #1E3E5F",
"5 	c #1A3D58",
"6 	c #183D54",
"7 	c #6DA1C1",
"8 	c #5A8EAF",
"9 	c #386284",
"0 	c #1E405D",
"a 	c #1D4259",
"b 	c #689CBC",
"c 	c #568AAA",
"d 	c #2D5273",
"e 	c #21455F",
"f 	c #22485F",
"g 	c #6397B7",
"h 	c #588CAD",
"i 	c #244466",
"j 	c #264D66",
"k 	c #274E66",
"l 	c #5E92B2",
"m 	c #244567",
"n 	c #2B526B",
"o 	c #2C546C",
"p 	c #FFFFFF",
"q 	c #598DAD",
"r 	c #6296B6",
"s 	c #325779",
"t 	c #2D526E",
"u 	c #325A73",
"v 	c #5388A8",
"w 	c #6095B4",
"x 	c #4A7495",
"y 	c #2A4D6B",
"z 	c #37607A",
"A 	c #4E83A3",
"B 	c #588CAC",
"C 	c #6698B7",
"D 	c #224364",
"E 	c #335A76",
"F 	c #3C6680",
"G 	c #497E9E",
"H 	c #5E8CAC",
"I 	c #274868",
"J 	c #365D7A",
"K 	c #416B85",
"L 	c #45799A",
"M 	c #4C80A1",
"N 	c #6290B0",
"O 	c #234465",
"P 	c #2F5472",
"Q 	c #3A617E",
"R 	c #416B87",
"S 	c #417596",
"T 	c #497D9E",
"U 	c #6498B7",
"V 	c #73A4C3",
"W 	c #5680A0",
"X 	c #3B5F80",
"Y 	c #274869",
"Z 	c #3D7192",
"` 	c #5184A5",
" .	c #6598B8",
"..	c #75A8C8",
"+.	c #81B4D3",
"@.	c #396E8F",
"#.	c #264C63",
"                                        ",
". . . . . . . . . . . . . . . . . . . . ",
"+ + + + + + + + + + + + + + + + + + + + ",
"@ @ @ @ @ @ # $ % & & % $ # @ @ @ @ @ @ ",
"* * * * = - ; > , ' ' , > ; - = * * * * ",
") ) ) ! ~ { ] ^ / ( ( / ^ ] { ~ ! ) ) ) ",
"_ _ _ : < [ } | | | | | | } [ < : _ _ _ ",
"1 1 2 3 4 5 6 6 6 6 6 6 6 6 5 4 3 2 1 1 ",
"7 7 8 9 0 a a a a a a a a a a 0 9 8 7 7 ",
"b b c d e f f f f f f f f f f e d c b b ",
"g g h i j k k k k k k k k k k j i h g g ",
"l l l m n o o o p o o p o o o n m l l l ",
"q q r s t u u u u p p u u u u t s r q q ",
"v v w x y z z z z z z z z z z y x w v v ",
"A A B C D E F F F F F F F F E D C B A A ",
"G G G r H I J K K K K K K J I H r G G G ",
"L L L M b N O P Q R R Q P O N b M L L L ",
"S S S S T U V W X Y Y X W V U T S S S S ",
"Z Z Z Z Z Z `  ...+.+... .` Z Z Z Z Z Z ",
"@.@.@.@.@.@.@.@.@.@.@.@.@.@.@.@.@.@.@.@.",
"#.#.#.#.#.#.#.#.#.#.#.#.#.#.#.#.#.#.#.#.",
"                                        "};
