/* XPM */
static char * title_4_inactive_xpm[] = {
"11 22 48 1",
" 	c None",
".	c #1F3E60",
"+	c #A6CCE3",
"@	c #86B9D8",
"#	c #34698A",
"$	c #396E8F",
"%	c #457A9B",
"&	c #578BAC",
"*	c #6DA1C1",
"=	c #83B6D5",
"-	c #366B8C",
";	c #77A9C9",
">	c #7FB2D2",
",	c #5085A6",
"'	c #73A6C6",
")	c #7BAECE",
"!	c #3B7192",
"~	c #568BAB",
"{	c #77AACA",
"]	c #3F7596",
"^	c #417798",
"/	c #6499B8",
"(	c #42799A",
"_	c #467D9F",
":	c #4D84A5",
"<	c #4A81A3",
"[	c #4B82A4",
"}	c #4E86A8",
"|	c #528AAD",
"1	c #548BAD",
"2	c #568EB1",
"3	c #5A92B6",
"4	c #5991B5",
"5	c #5187A8",
"6	c #5D96BA",
"7	c #497E9E",
"8	c #619ABE",
"9	c #497D9F",
"0	c #45799A",
"a	c #649DC1",
"b	c #629BBF",
"c	c #548BAE",
"d	c #417596",
"e	c #66A0C4",
"f	c #5D96B9",
"g	c #487EA0",
"h	c #3D7192",
"i	c #264C63",
"...........",
"+++++++++++",
"@@@@@@@@@@@",
"###$%&*====",
"------$&;>>",
"$$$$$$$$,')",
"!!!!!!!!!~{",
"]]]]]]]]]^/",
"((((((((((~",
"__________:",
"<<<<<<<<<<[",
"}}}}}}}}}}}",
"||||||||||1",
"22222222221",
"33333333345",
"66666666617",
"88888888290",
"aaaaaabc%dd",
"eeeafcghhhh",
"$$$$$$$$$$$",
"iiiiiiiiiii",
"..........."};
