/* XPM */
static char * title_2_inactive_xpm[] = {
"11 22 47 1",
" 	c #1F3E60",
".	c #A6CCE3",
"+	c #86B9D8",
"@	c #83B6D5",
"#	c #6DA1C1",
"$	c #578BAC",
"%	c #457A9B",
"&	c #396E8F",
"*	c #34698A",
"=	c #7FB2D2",
"-	c #77A9C9",
";	c #366B8C",
">	c #7BAECE",
",	c #73A6C6",
"'	c #5085A6",
")	c #77AACA",
"!	c #568BAB",
"~	c #3B7192",
"{	c #6499B8",
"]	c #417798",
"^	c #3F7596",
"/	c #42799A",
"(	c #4D84A5",
"_	c #467D9F",
":	c #4B82A4",
"<	c #4A81A3",
"[	c #4E86A8",
"}	c #548BAD",
"|	c #528AAD",
"1	c #568EB1",
"2	c #5187A8",
"3	c #5991B5",
"4	c #5A92B6",
"5	c #497E9E",
"6	c #5D96BA",
"7	c #45799A",
"8	c #497D9F",
"9	c #619ABE",
"0	c #417596",
"a	c #548BAE",
"b	c #629BBF",
"c	c #649DC1",
"d	c #3D7192",
"e	c #487EA0",
"f	c #5D96B9",
"g	c #66A0C4",
"h	c #264C63",
"           ",
"...........",
"+++++++++++",
"@@@@#$%&***",
"==-$&;;;;;;",
">,'&&&&&&&&",
")!~~~~~~~~~",
"{]^^^^^^^^^",
"!//////////",
"(__________",
":<<<<<<<<<<",
"[[[[[[[[[[[",
"}||||||||||",
"}1111111111",
"23444444444",
"5}666666666",
"78199999999",
"00%abcccccc",
"ddddeafcggg",
"&&&&&&&&&&&",
"hhhhhhhhhhh",
"           "};
