/* XPM */
static char * top_right_inactive_xpm[] = {
"14 22 21 1",
" 	c #1F3E60",
".	c #A6CCE3",
"+	c #86B9D8",
"@	c #83B6D5",
"#	c #7FB2D2",
"$	c #7BAECE",
"%	c #77AACA",
"&	c #72A6C5",
"*	c #6DA1C1",
"=	c #689CBC",
"-	c #6397B7",
";	c #5E92B2",
">	c #598DAD",
",	c #5388A8",
"'	c #4E83A3",
")	c #497E9E",
"!	c #45799A",
"~	c #417596",
"{	c #3D7192",
"]	c #396E8F",
"^	c #264C63",
"              ",
"............. ",
"+++++++++++++ ",
"@@@@@@@@@@@@@ ",
"############# ",
"$$$$$$$$$$$$$ ",
"%%%%%%%%%%%%% ",
"&&&&&&&&&&&&& ",
"************* ",
"============= ",
"------------- ",
";;;;;;;;;;;;; ",
">>>>>>>>>>>>> ",
",,,,,,,,,,,,, ",
"''''''''''''' ",
"))))))))))))) ",
"!!!!!!!!!!!!! ",
"~~~~~~~~~~~~~ ",
"{{{{{{{{{{{{{ ",
"]]]]]]]]]]]]] ",
"^^^^^^^^^^^^^ ",
"              "};
