/* XPM */
static char * close_pressed_xpm[] = {
"11 19 7 1",
" 	c #000000",
".	c #606060",
"+	c #3B3B3B",
"@	c #171717",
"#	c #0D0D0D",
"$	c #5A5A5A",
"%	c #282828",
"           ",
"...........",
"+++++++++++",
"+++++++++++",
"@@@@@@@@@@@",
"@#########@",
"@#########@",
"@##$$$$$##@",
"@##$$$$$##@",
"@##$$$$$##@",
"@##$$$$$##@",
"@##$$$$$##@",
"@#########@",
"@#########@",
"@@@@@@@@@@@",
"%%%%%%%%%%%",
"%%%%%%%%%%%",
"%%%%%%%%%%%",
"           "};
