/* XPM */
static char * hide_active_xpm[] = {
"11 19 8 1",
" 	c None",
".	c #000000",
"+	c #606060",
"@	c #3B3B3B",
"#	c #171717",
"$	c #0D0D0D",
"%	c #7A7A7A",
"&	c #282828",
"...........",
"+++++++++++",
"@@@@@@@@@@@",
"@@@@@@@@@@@",
"###########",
"#$$$$$$$$$#",
"#$$$$$$$$$#",
"#$$$$$$$$$#",
"#$$$$$$$$$#",
"#$$$$$$$$$#",
"#$$$$$$$$$#",
"#$$%%%%%$$#",
"#$$$$$$$$$#",
"#$$$$$$$$$#",
"###########",
"&&&&&&&&&&&",
"&&&&&&&&&&&",
"&&&&&&&&&&&",
"..........."};
