/* XPM */
static char * top_right_active_xpm[] = {
"4 19 21 1",
" 	c None",
".	c #000000",
"+	c #606060",
"@	c #3B3B3B",
"#	c #5E5E5E",
"$	c #5C5C5C",
"%	c #5A5A5A",
"&	c #585858",
"*	c #555555",
"=	c #535353",
"-	c #505050",
";	c #282828",
">	c #414141",
",	c #3D3D3D",
"'	c #3A3A3A",
")	c #373737",
"!	c #333333",
"~	c #303030",
"{	c #2E2E2E",
"]	c #2C2C2C",
"^	c #2A2A2A",
"....",
"+++.",
"@@#.",
"@@$.",
"@@%.",
"@@&.",
"@@*.",
"@@=.",
"@@-.",
";;>.",
";;,.",
";;'.",
";;).",
";;!.",
";;~.",
";;{.",
";;].",
";;^.",
".;;."};
