/* XPM */
static char * bottom_active_xpm[] = {
"3 3 4 1",
" 	c None",
".	c #AAA9A9",
"+	c #D8D1D0",
"@	c #929292",
"...",
"+++",
"@@@"};
