/* XPM */
static char * hide_active_xpm[] = {
"9 20 21 1",
" 	c None",
".	c #929292",
"+	c #FFFFFF",
"@	c #E8E3E2",
"#	c #FFF8F8",
"$	c #FFF8F7",
"%	c #FCF5F5",
"&	c #F9F3F1",
"*	c #F9F2F2",
"=	c #F6EFEF",
"-	c #F4EDEC",
";	c #F3ECEC",
">	c #F0EAEA",
",	c #F0EAE9",
"'	c #EEE7E6",
")	c #EAE4E4",
"!	c #EAE4E3",
"~	c #D8D1D0",
"{	c #BBB7B7",
"]	c #D2CCCC",
"^	c #AAA9A9",
".........",
"+++++++++",
"@@@@@@@@@",
"#$$#$$#$$",
"%%%%%%%%%",
"&&*&&*&&*",
"=========",
"-;;-;;-;;",
">,>>,>>,>",
"'''''''''",
")!))!))!)",
"~{{{{{{{~",
"~{+++++{~",
"~{+++++{~",
"~{{{{{{{~",
"~~~~~~~~~",
"~~~~~~~~~",
"~~~~~~~~~",
"]]]]]]]]]",
"^^^^^^^^^"};
