/* XPM */
static char * title_1_active_xpm[] = {
"1 20 15 1",
" 	c None",
".	c #929292",
"+	c #FFFFFF",
"@	c #E8E3E2",
"#	c #FFF8F8",
"$	c #FCF5F5",
"%	c #F9F3F1",
"&	c #F6EFEF",
"*	c #F4EDEC",
"=	c #F0EAEA",
"-	c #EEE7E6",
";	c #EAE4E4",
">	c #D8D1D0",
",	c #D2CCCC",
"'	c #AAA9A9",
".",
"+",
"@",
"#",
"$",
"%",
"&",
"*",
"=",
"-",
";",
">",
">",
">",
">",
">",
">",
">",
",",
"'"};
