/* XPM */
static char * bottom_left_inactive_xpm[] = {
"6 6 3 1",
" 	c None",
".	c #A40000",
"+	c #CC0000",
".++.  ",
".++.  ",
".++...",
".+++++",
".+++++",
"......"};
