/* XPM */
static char * hide_pressed_xpm[] = {
"7 19 16 1",
" 	c None",
".	c #A40000",
"+	c #EF2929",
"@	c #BB0000",
"#	c #BE0000",
"$	c #C00000",
"%	c #C20000",
"&	c #C60000",
"*	c #C80000",
"=	c #CA0000",
"-	c #CC0000",
";	c #CE0C0C",
">	c #CF0F0F",
",	c #D01212",
"'	c #D01515",
")	c #D11717",
".......",
"+++++++",
"@@@@@@@",
"#######",
"$$$$$$$",
"%%%%%%%",
"&&&&&&&",
"*******",
"=======",
"-------",
".......",
".+++++.",
".......",
";;;;;;;",
">>>>>>>",
",,,,,,,",
"'''''''",
")))))))",
"......."};
