/* XPM */
static char * maximize_pressed_xpm[] = {
"7 19 12 1",
" 	c None",
".	c #A40000",
"+	c #EF2929",
"@	c #BB0000",
"#	c #BE0000",
"$	c #C00000",
"%	c #C20000",
"&	c #CE0C0C",
"*	c #CF0F0F",
"=	c #D01212",
"-	c #D01515",
";	c #D11717",
".......",
"+++++++",
"@@@@@@@",
"#######",
"$$$$$$$",
"%%%%%%%",
".......",
".+++++.",
".+++++.",
".+...+.",
".+...+.",
".+++++.",
".......",
"&&&&&&&",
"*******",
"=======",
"-------",
";;;;;;;",
"......."};
