/* XPM */
static char * close_active_xpm[] = {
"13 19 27 1",
" 	c #DCDCDC",
".	c #DBDBDB",
"+	c #DEDCDD",
"@	c #FFFFFF",
"#	c #ECECEC",
"$	c #ECECEA",
"%	c #DBDBD9",
"&	c #F4F4F4",
"*	c #F3F3F3",
"=	c #F3F3F1",
"-	c #F4F2F3",
";	c #F3F1F2",
">	c #F2F2F0",
",	c #989898",
"'	c #F2F0F1",
")	c #F0F0EE",
"!	c #F0F0F0",
"~	c #F1F1EF",
"{	c #EFEFEF",
"]	c #F0EEEF",
"^	c #EEEEEE",
"/	c #EEEEEC",
"(	c #EDEDED",
"_	c #EFEFED",
":	c #EDEDEB",
"<	c #DCDCDA",
"[	c #F4F4F2",
"         ..++",
"@@@@@@@@@@@@@",
"###########$$",
"           %%",
"&&&&&&&&&**==",
"-------;;**>>",
";;,,,,,,,@'==",
"'',@@@@@,@'))",
"!!,@,@,@,@'~~",
"{{,@@@@@,@]))",
"{{{,@,@,@^^//",
"^^^,@,@,@((__",
"(((,,,,,@^^::",
"(((((((((((::",
"(((((((((((//",
"           <<",
"&&&&&&&&&&&[[",
"###########$$",
"             "};
