/* XPM */
static char * title_1_active_xpm[] = {
"1 19 12 1",
" 	c #DCDCDC",
".	c #FFFFFF",
"+	c #ECECEC",
"@	c #F3F3F3",
"#	c #F4F2F3",
"$	c #F2F2F2",
"%	c #F1F1F1",
"&	c #F0F0F0",
"*	c #EFEFEF",
"=	c #EEEEEE",
"-	c #EDEDED",
";	c #F4F4F4",
" ",
".",
"+",
" ",
"@",
"#",
"$",
"$",
"%",
"&",
"*",
"=",
"-",
"-",
"-",
" ",
";",
"+",
" "};
