/* XPM */
static char * top_right_active_xpm[] = {
"4 19 18 1",
" 	c #DDDBDC",
".	c #DADBDD",
"+	c #DBDDDC",
"@	c #DCDCDE",
"#	c #FFFEFF",
"$	c #FFFFFD",
"%	c #DDDBDE",
"&	c #ECECEC",
"*	c #EFEFEF",
"=	c #DCDCDC",
"-	c #F3F3F3",
";	c #F0F0F0",
">	c #F4F4F4",
",	c #F5F5F5",
"'	c #DDDDDD",
")	c #F1F1F1",
"!	c #DBDBDB",
"~	c #EBEBEB",
" .+@",
"##$%",
"&&*=",
"=-;=",
"=>;=",
"=,*=",
"'>)=",
"=>)!",
"=>*'",
"=>;!",
"=>*'",
"!>*=",
"!>;=",
"=>;=",
"=>;=",
"=-;'",
"-,*=",
"&~)=",
"=,;="};
