/* XPM */
static char * bottom_active_xpm[] = {
"6 4 2 1",
" 	c #000000",
".	c #6C6C6C",
"      ",
"......",
"      ",
"      "};
