/* XPM */
static char * hide_inactive_xpm[] = {
"11 19 52 1",
" 	c None",
".	c #000000",
"+	c #6C6C6C",
"@	c #212121",
"#	c #202121",
"$	c #202120",
"%	c #212020",
"&	c #202021",
"*	c #202020",
"=	c #20201F",
"-	c #201F20",
";	c #201F1F",
">	c #1F2020",
",	c #1F201F",
"'	c #1F1F20",
")	c #1F1F1F",
"!	c #1E1E1E",
"~	c #1E1E1F",
"{	c #1F1F1E",
"]	c #1E1F1E",
"^	c #1F1E1E",
"/	c #1E1E1D",
"(	c #1D1D1E",
"_	c #1E1D1D",
":	c #1D1E1D",
"<	c #1E1D1E",
"[	c #1C1D1D",
"}	c #1D1D1C",
"|	c #1D1D1D",
"1	c #1C1C1D",
"2	c #1D1C1D",
"3	c #1C1C1C",
"4	c #1B1B1B",
"5	c #1B1C1B",
"6	c #5F5F5F",
"7	c #1B1B1C",
"8	c #1B1A1A",
"9	c #1A1B1B",
"0	c #1A1A1A",
"a	c #1B1A1B",
"b	c #1B1B1A",
"c	c #19191A",
"d	c #191A19",
"e	c #1A1919",
"f	c #1A1A19",
"g	c #191919",
"h	c #181919",
"i	c #191819",
"j	c #191818",
"k	c #191918",
"l	c #181818",
"m	c #181819",
"...........",
"+++++++++++",
"@@@@@@@@@@@",
"#$$#%%@@#@$",
"&*$&**$**%*",
"==-;->>,='-",
")))))))))))",
"!~~{]!~]]^!",
"//(_!:!!<!:",
"[}[|1[}|||2",
"33333333331",
"45466666754",
"4894440a94b",
"00000000000",
"cdeefccgggg",
"hghijghkggg",
"hlhjkljjmll",
"...........",
"..........."};
