/* XPM */
static char * maximize_pressed_xpm[] = {
"11 19 42 1",
" 	c #000000",
".	c #6C6C6C",
"+	c #212121",
"@	c #222121",
"#	c #212120",
"$	c #202120",
"%	c #202121",
"&	c #212021",
"*	c #424242",
"=	c #1F201F",
"-	c #202020",
";	c #20201F",
">	c #201F20",
",	c #1F1F1F",
"'	c #1F1F20",
")	c #1F2020",
"!	c #1E1F1F",
"~	c #1E1E1E",
"{	c #CCCCCC",
"]	c #1D1D1E",
"^	c #1E1D1E",
"/	c #1D1E1D",
"(	c #1D1D1D",
"_	c #1D1C1D",
":	c #1C1C1C",
"<	c #1C1C1D",
"[	c #1C1D1C",
"}	c #1B1C1C",
"|	c #1B1B1C",
"1	c #1B1B1B",
"2	c #1B1B1A",
"3	c #1B1A1B",
"4	c #1A1B1B",
"5	c #1A1A1A",
"6	c #1A1A19",
"7	c #191819",
"8	c #181919",
"9	c #191919",
"0	c #181819",
"a	c #191918",
"b	c #191818",
"c	c #181818",
"           ",
"...........",
"+@+++++++++",
"#+++$+%&#+%",
"***********",
"*=-;>,')-=*",
"*,,,,',,,,*",
"*!~{{{{{~~*",
"*]~{{{{{^/*",
"*(({_(({_(*",
"*:<{[::{::*",
"*}|{{{{{1:*",
"*213112224*",
"*555555655*",
"***********",
"789790a9a99",
"bccb7cb709a",
"           ",
"           "};
