/* XPM */
static char * top_right_active_xpm[] = {
"4 19 25 1",
" 	c #000000",
".	c #6C6C6C",
"+	c #121212",
"@	c #212121",
"#	c #212021",
"$	c #202021",
"%	c #201F1F",
"&	c #202020",
"*	c #1F1F1F",
"=	c #1E1F1E",
"-	c #1E1E1E",
";	c #1D1D1D",
">	c #1E1D1D",
",	c #1C1D1D",
"'	c #1C1C1C",
")	c #1C1C1D",
"!	c #1B1C1C",
"~	c #1B1B1B",
"{	c #1A1A1A",
"]	c #191A1A",
"^	c #1A1A19",
"/	c #181818",
"(	c #191918",
"_	c #181918",
":	c #191818",
"    ",
"..+ ",
"@@  ",
"@#  ",
"$$  ",
"%&  ",
"**  ",
"=-  ",
";>  ",
",;  ",
"')  ",
"!~  ",
"~~  ",
"{{  ",
"]^  ",
"/(  ",
"_:  ",
"    ",
"    "};
