/* XPM */
static char * top_left_active_xpm[] = {
"4 19 27 1",
" 	c #000000",
".	c #767676",
"+	c #6C6C6C",
"@	c #363636",
"#	c #212121",
"$	c #202120",
"%	c #212020",
"&	c #202020",
"*	c #201F20",
"=	c #1F201F",
"-	c #1F1F1F",
";	c #1F1E1F",
">	c #1E1E1F",
",	c #1E1E1E",
"'	c #1E1E1D",
")	c #1D1D1D",
"!	c #1C1C1C",
"~	c #1C1C1D",
"{	c #1B1B1B",
"]	c #1B1B1A",
"^	c #1A1B1B",
"/	c #1A1A1A",
"(	c #191A19",
"_	c #19191A",
":	c #191818",
"<	c #191919",
"[	c #181918",
"    ",
" .++",
" @##",
" @$$",
" @%&",
" @&*",
" @=-",
" @;>",
" @,'",
" @))",
" @!~",
" @{!",
" @]^",
" @//",
" @(_",
" @:<",
" @:[",
" @  ",
" @  "};
