/* XPM */
static char * hide_active_xpm[] = {
"15 21 52 1",
" 	c #404040",
".	c #787571",
"+	c #555553",
"@	c #3F3F3F",
"#	c #3D3D3D",
"$	c #3B3B3B",
"%	c #373737",
"&	c #3A3A3A",
"*	c #454545",
"=	c #313131",
"-	c #2D2D2D",
";	c #303030",
">	c #434343",
",	c #4B4B4B",
"'	c #424242",
")	c #4C4C4C",
"!	c #2F2F2F",
"~	c #484848",
"{	c #505050",
"]	c #4D4D4D",
"^	c #383838",
"/	c #353535",
"(	c #333333",
"_	c #565656",
":	c #525252",
"<	c #2E2E2E",
"[	c #FFFFFF",
"}	c #444444",
"|	c #555555",
"1	c #5B5B5B",
"2	c #545454",
"3	c #474747",
"4	c #5A5A5A",
"5	c #5D5D5D",
"6	c #535353",
"7	c #515151",
"8	c #4E4E4E",
"9	c #585858",
"0	c #626262",
"a	c #595959",
"b	c #575757",
"c	c #656565",
"d	c #5C5C5C",
"e	c #616161",
"f	c #666666",
"g	c #636363",
"h	c #6A6A6A",
"i	c #414141",
"j	c #6E6E6E",
"k	c #747474",
"l	c #757575",
"m	c #4A4A4A",
"               ",
"...............",
"+++++++++++++++",
"               ",
"    @#$$$#@    ",
"    @$%%&      ",
"  **=----;>,*  ",
" ')!-------~{' ",
" ]^-;/^&^/;(_] ",
" :<%$ '[} $%{| ",
" {$ '*[~[*' {1 ",
" 2}3~~~~~~~324 ",
" |)]])~~~,]]5_ ",
" )46:78]87:90) ",
"  15a9b_b91cd  ",
"  >efeeg0ch0>  ",
"   i9jkllj9i   ",
"      m8m      ",
"               ",
"               ",
"               "};
