/* XPM */
static char * top_left_active_xpm[] = {
"5 21 4 1",
" 	c None",
".	c #404040",
"+	c #787571",
"@	c #555553",
" ....",
".++++",
".@@@@",
".....",
".....",
".....",
".....",
".....",
".....",
".....",
".....",
".....",
".....",
".....",
".....",
".....",
".....",
".....",
".....",
".....",
"....."};
