/* XPM */
static char * maximize_pressed_xpm[] = {
"8 18 45 1",
" 	c None",
".	c #0C0C0C",
"+	c #656565",
"@	c #414141",
"#	c #414041",
"$	c #424243",
"%	c #424242",
"&	c #434444",
"*	c #444343",
"=	c #444444",
"-	c #434443",
";	c #444443",
">	c #444344",
",	c #454645",
"'	c #464645",
")	c #464545",
"!	c #454545",
"~	c #474747",
"{	c #494949",
"]	c #4B4A4B",
"^	c #E7E7E7",
"/	c #4D4C4C",
"(	c #4C4C4C",
"_	c #4E4E4E",
":	c #4F4F4F",
"<	c #4D4D4D",
"[	c #4F4E4E",
"}	c #505050",
"|	c #515152",
"1	c #525252",
"2	c #525251",
"3	c #525152",
"4	c #535353",
"5	c #535354",
"6	c #545354",
"7	c #545353",
"8	c #555555",
"9	c #555454",
"0	c #545555",
"a	c #545554",
"b	c #555554",
"c	c #565656",
"d	c #565657",
"e	c #565756",
"f	c #FFFFFF",
"........",
"++++++++",
"@@@@@#@@",
"$$%%%%%%",
"&*=-;>==",
",')!!!!!",
"~~~~~~~~",
"{{{{{{{{",
"]]^^^^^^",
"///^^^^(",
"_:__^^<[",
"}}}}::}}",
"|112|213",
"45446467",
"889809ab",
"cccdccce",
"........",
"ffffffff"};
