/* XPM */
static char * close_inactive_xpm[] = {
"7 18 3 1",
" 	c None",
".	c #2E3436",
"+	c #555753",
".......",
".......",
".......",
".......",
".......",
".......",
".......",
".+...+.",
"..+.+..",
"...+...",
"..+.+..",
".+...+.",
".......",
".......",
".......",
".......",
".......",
"......."};
