/* XPM */
static char * maximize_hover_xpm[] = {
"7 18 5 1",
" 	c None",
".	c #2E3436",
"+	c #9FA29B",
"@	c #888A85",
"#	c #D3D7CF",
".......",
".......",
"+++++++",
"@@@@@@@",
"@@@@@@@",
"@@@@@@@",
"@#####@",
"@#####@",
"@#@@@#@",
"@#@@@#@",
"@#####@",
"@@@@@@@",
"@@@@@@@",
"@@@@@@@",
"@@@@@@@",
"@@@@@@@",
"@@@@@@@",
"@@@@@@@"};
