/* XPM */
static char * maximize_active_xpm[] = {
"7 18 4 1",
" 	c None",
".	c #2E3436",
"+	c #9FA29B s active_hilight_2",
"@	c #888A85 s active_color_2",
".......",
".......",
"+++++++",
"@@@@@@@",
"@@@@@@@",
"@@@@@@@",
"@@@@@@@",
"@.....@",
"@.....@",
"@.@@@.@",
"@.@@@.@",
"@.....@",
"@@@@@@@",
"@@@@@@@",
"@@@@@@@",
"@@@@@@@",
"@@@@@@@",
"@@@@@@@"};
