/* XPM */
static char * shade_inactive_xpm[] = {
"14 23 4 1",
" 	c None",
".	c #707070",
"+	c #D4D4D4 s active_color_2",
"@	c #C3C3C3",
"..............",
"..............",
"++++++++++++++",
"++++++++++++++",
"++++++++++++++",
"++++++++++++++",
"++++++++++++++",
"++@@@@@@@@@@++",
"++@++++++++@++",
"++@++++++++@++",
"++@++++++++@++",
"++@@@@@@@@@@++",
"++@@@@@@@@@@++",
"++@@@@@@@@@@++",
"++@@@@@@@@@@++",
"++@@@@@@@@@@++",
"++@@@@@@@@@@++",
"++++++++++++++",
"++++++++++++++",
"++++++++++++++",
"++++++++++++++",
"++++++++++++++",
"++++++++++++++"};
