/* XPM */
static char * title_5_inactive_xpm[] = {
"1 23 3 1",
" 	c None",
".	c #707070",
"+	c #D4D4D4 s active_color_2",
".",
".",
"+",
"+",
"+",
"+",
"+",
"+",
"+",
"+",
"+",
"+",
"+",
"+",
"+",
"+",
"+",
"+",
"+",
"+",
"+",
"+",
"+"};
