/* XPM */
static char * title_4_active_xpm[] = {
"1 23 5 1",
" 	c None",
".	c #707070",
"+	c #00BFF3",
"@	c #FFFFFF s active_hilight_2",
"#	c #D4D4D4 s active_color_2",
".",
"+",
"@",
"#",
"#",
"#",
"#",
"#",
"#",
"#",
"#",
"#",
"#",
"#",
"#",
"#",
"#",
"#",
"#",
"#",
"#",
"#",
"#"};
