/* XPM */
static char * title_4_active_xpm[] = {
"3 22 31 1",
" 	c #000000",
".	c #C8C3F9",
"+	c #9D98F4",
"@	c #424067",
"#	c #414167",
"$	c #010101",
"%	c #010103",
"&	c #F1F1F1",
"*	c #9D9D9D",
"=	c #EDE67B",
"-	c #C4C4C4",
";	c #6F6F6F",
">	c #E5D631",
",	c #C3C3C3",
"'	c #E4D635",
")	c #C5C5C5",
"!	c #E6D935",
"~	c #E1D738",
"{	c #E3DB32",
"]	c #E3D93A",
"^	c #E5D937",
"/	c #E4D838",
"(	c #E5D834",
"_	c #6E6E6E",
":	c #E2D934",
"<	c #E5D939",
"[	c #E7D533",
"}	c #E4D733",
"|	c #8B8B8B",
"1	c #525252",
"2	c #AEA200",
"   ",
"...",
"+++",
"@@#",
"$$%",
"&*=",
"-;>",
",;'",
");!",
"-;~",
"-;{",
"-;]",
"-;^",
"-;/",
"-;(",
"-_:",
"-;<",
");[",
",;}",
"|12",
"   ",
"   "};
