/* XPM */
static char * title_1_active_xpm[] = {
"1 22 7 1",
" 	c #000000",
".	c #C8C3F9",
"+	c #9D98F4",
"@	c #424067",
"#	c #F3F3F3",
"$	c #EFEFEF",
"%	c #A9A9A9",
" ",
".",
"+",
"@",
" ",
"#",
"$",
"$",
"$",
"$",
"$",
"$",
"$",
"$",
"$",
"$",
"$",
"$",
"$",
"%",
" ",
" "};
