/* XPM */
static char * top_left_active_xpm[] = {
"6 22 61 1",
" 	c #010100",
".	c #010005",
"+	c #000100",
"@	c #000103",
"#	c #000002",
"$	c #000000",
"%	c #010006",
"&	c #CEC7FA",
"*	c #C8C3F9",
"=	c #C6C4F5",
"-	c #C7C2F8",
";	c #000201",
">	c #B3ACF2",
",	c #A099F6",
"'	c #9E99F5",
")	c #9E97F7",
"!	c #9D96F5",
"~	c #B3ACFA",
"{	c #6D6BAA",
"]	c #4F4E76",
"^	c #434169",
"/	c #B5AFF7",
"(	c #9D98F4",
"_	c #5B5891",
":	c #000105",
"<	c #B4AEF6",
"[	c #9D98F6",
"}	c #66609E",
"|	c #F4F4F4",
"1	c #B0ADF4",
"2	c #9D98F2",
"3	c #655F9D",
"4	c #F1F1F3",
"5	c #B1ADF7",
"6	c #9C97F1",
"7	c #65629B",
"8	c #010101",
"9	c #B5AFF9",
"0	c #9E99F7",
"a	c #636099",
"b	c #F1F1EF",
"c	c #020003",
"d	c #B3ADF5",
"e	c #9E97F6",
"f	c #66619B",
"g	c #EFEFED",
"h	c #000004",
"i	c #645E9A",
"j	c #F2F2F4",
"k	c #B1ADF9",
"l	c #64609B",
"m	c #F2F2F2",
"n	c #B4AEF8",
"o	c #655F9B",
"p	c #F0F0F0",
"q	c #9F9AF6",
"r	c #635D99",
"s	c #B3ADF7",
"t	c #66609C",
"u	c #F1F1F1",
"v	c #CECECE",
" .+@#$",
"%&*=*-",
";>,')!",
"+~){]^",
"$/(_:@",
"$<[}$|",
"$123$4",
"#56784",
"$90a$b",
"cdef8g",
"hd,i$j",
"$k'l$m",
"$n(o$m",
"$n(o8p",
"$nqr8m",
"$s(o$p",
"$9(o$p",
"$s(t8u",
"$n'o$u",
"$n'i$v",
"$n(o$$",
"$9(t$$"};
